<svg xmlns="http://www.w3.org/2000/svg" xmlns:xlink="http://www.w3.org/1999/xlink" width="500" zoomAndPan="magnify" viewBox="0 0 375 374.999991" height="500" preserveAspectRatio="xMidYMid meet" version="1.0"><defs><g/><clipPath id="5fbc1224bc"><path d="M 76.234375 76.234375 L 298.765625 76.234375 L 298.765625 298.765625 L 76.234375 298.765625 Z M 76.234375 76.234375 " clip-rule="nonzero"/></clipPath><clipPath id="3fac4069b9"><path d="M 187.5 76.234375 C 126.050781 76.234375 76.234375 126.050781 76.234375 187.5 C 76.234375 248.949219 126.050781 298.765625 187.5 298.765625 C 248.949219 298.765625 298.765625 248.949219 298.765625 187.5 C 298.765625 126.050781 248.949219 76.234375 187.5 76.234375 Z M 187.5 76.234375 " clip-rule="nonzero"/></clipPath><linearGradient x1="-0.00000181349" gradientTransform="matrix(0.869268, 0, 0, 0.869268, 76.233707, 76.233708)" y1="128" x2="256.000002" gradientUnits="userSpaceOnUse" y2="128" id="f3f7b23a52"><stop stop-opacity="1" stop-color="rgb(74.099731%, 62.399292%, 13.699341%)" offset="0"/><stop stop-opacity="1" stop-color="rgb(74.200439%, 62.516785%, 13.883972%)" offset="0.0078125"/><stop stop-opacity="1" stop-color="rgb(74.401855%, 62.75177%, 14.254761%)" offset="0.015625"/><stop stop-opacity="1" stop-color="rgb(74.604797%, 62.986755%, 14.627075%)" offset="0.0234375"/><stop stop-opacity="1" stop-color="rgb(74.806213%, 63.221741%, 14.997864%)" offset="0.03125"/><stop stop-opacity="1" stop-color="rgb(75.009155%, 63.456726%, 15.368652%)" offset="0.0390625"/><stop stop-opacity="1" stop-color="rgb(75.212097%, 63.693237%, 15.739441%)" offset="0.046875"/><stop stop-opacity="1" stop-color="rgb(75.413513%, 63.928223%, 16.110229%)" offset="0.0546875"/><stop stop-opacity="1" stop-color="rgb(75.616455%, 64.163208%, 16.482544%)" offset="0.0625"/><stop stop-opacity="1" stop-color="rgb(75.819397%, 64.398193%, 16.853333%)" offset="0.0703125"/><stop stop-opacity="1" stop-color="rgb(76.020813%, 64.633179%, 17.224121%)" offset="0.078125"/><stop stop-opacity="1" stop-color="rgb(76.223755%, 64.868164%, 17.59491%)" offset="0.0859375"/><stop stop-opacity="1" stop-color="rgb(76.425171%, 65.103149%, 17.965698%)" offset="0.09375"/><stop stop-opacity="1" stop-color="rgb(76.628113%, 65.338135%, 18.338013%)" offset="0.101562"/><stop stop-opacity="1" stop-color="rgb(76.831055%, 65.57312%, 18.708801%)" offset="0.109375"/><stop stop-opacity="1" stop-color="rgb(77.032471%, 65.809631%, 19.07959%)" offset="0.117188"/><stop stop-opacity="1" stop-color="rgb(77.235413%, 66.044617%, 19.450378%)" offset="0.125"/><stop stop-opacity="1" stop-color="rgb(77.436829%, 66.279602%, 19.821167%)" offset="0.132812"/><stop stop-opacity="1" stop-color="rgb(77.639771%, 66.514587%, 20.193481%)" offset="0.140625"/><stop stop-opacity="1" stop-color="rgb(77.842712%, 66.749573%, 20.56427%)" offset="0.148438"/><stop stop-opacity="1" stop-color="rgb(78.044128%, 66.984558%, 20.935059%)" offset="0.15625"/><stop stop-opacity="1" stop-color="rgb(78.24707%, 67.219543%, 21.305847%)" offset="0.164062"/><stop stop-opacity="1" stop-color="rgb(78.448486%, 67.454529%, 21.676636%)" offset="0.171875"/><stop stop-opacity="1" stop-color="rgb(78.651428%, 67.689514%, 22.04895%)" offset="0.179687"/><stop stop-opacity="1" stop-color="rgb(78.85437%, 67.926025%, 22.419739%)" offset="0.1875"/><stop stop-opacity="1" stop-color="rgb(79.055786%, 68.161011%, 22.790527%)" offset="0.195312"/><stop stop-opacity="1" stop-color="rgb(79.258728%, 68.395996%, 23.161316%)" offset="0.203125"/><stop stop-opacity="1" stop-color="rgb(79.460144%, 68.630981%, 23.532104%)" offset="0.210937"/><stop stop-opacity="1" stop-color="rgb(79.663086%, 68.865967%, 23.904419%)" offset="0.21875"/><stop stop-opacity="1" stop-color="rgb(79.866028%, 69.100952%, 24.275208%)" offset="0.226562"/><stop stop-opacity="1" stop-color="rgb(80.067444%, 69.335938%, 24.645996%)" offset="0.234375"/><stop stop-opacity="1" stop-color="rgb(80.270386%, 69.570923%, 25.016785%)" offset="0.242187"/><stop stop-opacity="1" stop-color="rgb(80.473328%, 69.805908%, 25.387573%)" offset="0.25"/><stop stop-opacity="1" stop-color="rgb(80.674744%, 70.042419%, 25.759888%)" offset="0.257812"/><stop stop-opacity="1" stop-color="rgb(80.877686%, 70.277405%, 26.130676%)" offset="0.265625"/><stop stop-opacity="1" stop-color="rgb(81.079102%, 70.51239%, 26.501465%)" offset="0.273437"/><stop stop-opacity="1" stop-color="rgb(81.282043%, 70.747375%, 26.872253%)" offset="0.28125"/><stop stop-opacity="1" stop-color="rgb(81.484985%, 70.982361%, 27.243042%)" offset="0.289062"/><stop stop-opacity="1" stop-color="rgb(81.686401%, 71.217346%, 27.615356%)" offset="0.296875"/><stop stop-opacity="1" stop-color="rgb(81.889343%, 71.452332%, 27.986145%)" offset="0.304687"/><stop stop-opacity="1" stop-color="rgb(82.090759%, 71.687317%, 28.356934%)" offset="0.3125"/><stop stop-opacity="1" stop-color="rgb(82.293701%, 71.922302%, 28.727722%)" offset="0.320312"/><stop stop-opacity="1" stop-color="rgb(82.496643%, 72.158813%, 29.098511%)" offset="0.328125"/><stop stop-opacity="1" stop-color="rgb(82.698059%, 72.393799%, 29.470825%)" offset="0.335938"/><stop stop-opacity="1" stop-color="rgb(82.901001%, 72.628784%, 29.841614%)" offset="0.34375"/><stop stop-opacity="1" stop-color="rgb(83.102417%, 72.86377%, 30.212402%)" offset="0.351562"/><stop stop-opacity="1" stop-color="rgb(83.305359%, 73.098755%, 30.583191%)" offset="0.359375"/><stop stop-opacity="1" stop-color="rgb(83.508301%, 73.33374%, 30.953979%)" offset="0.367187"/><stop stop-opacity="1" stop-color="rgb(83.709717%, 73.568726%, 31.326294%)" offset="0.375"/><stop stop-opacity="1" stop-color="rgb(83.912659%, 73.803711%, 31.697083%)" offset="0.382812"/><stop stop-opacity="1" stop-color="rgb(84.114075%, 74.038696%, 32.067871%)" offset="0.390625"/><stop stop-opacity="1" stop-color="rgb(84.317017%, 74.275208%, 32.43866%)" offset="0.398437"/><stop stop-opacity="1" stop-color="rgb(84.519958%, 74.510193%, 32.809448%)" offset="0.40625"/><stop stop-opacity="1" stop-color="rgb(84.721375%, 74.745178%, 33.181763%)" offset="0.414062"/><stop stop-opacity="1" stop-color="rgb(84.924316%, 74.980164%, 33.552551%)" offset="0.421875"/><stop stop-opacity="1" stop-color="rgb(85.127258%, 75.215149%, 33.92334%)" offset="0.429687"/><stop stop-opacity="1" stop-color="rgb(85.328674%, 75.450134%, 34.294128%)" offset="0.4375"/><stop stop-opacity="1" stop-color="rgb(85.531616%, 75.68512%, 34.664917%)" offset="0.445312"/><stop stop-opacity="1" stop-color="rgb(85.733032%, 75.920105%, 35.037231%)" offset="0.453125"/><stop stop-opacity="1" stop-color="rgb(85.935974%, 76.15509%, 35.40802%)" offset="0.460938"/><stop stop-opacity="1" stop-color="rgb(86.138916%, 76.391602%, 35.778809%)" offset="0.46875"/><stop stop-opacity="1" stop-color="rgb(86.340332%, 76.626587%, 36.149597%)" offset="0.476562"/><stop stop-opacity="1" stop-color="rgb(86.543274%, 76.861572%, 36.520386%)" offset="0.484375"/><stop stop-opacity="1" stop-color="rgb(86.74469%, 77.096558%, 36.8927%)" offset="0.492187"/><stop stop-opacity="1" stop-color="rgb(86.947632%, 77.331543%, 37.263489%)" offset="0.5"/><stop stop-opacity="1" stop-color="rgb(87.150574%, 77.566528%, 37.634277%)" offset="0.507812"/><stop stop-opacity="1" stop-color="rgb(87.35199%, 77.801514%, 38.005066%)" offset="0.515625"/><stop stop-opacity="1" stop-color="rgb(87.554932%, 78.036499%, 38.375854%)" offset="0.523437"/><stop stop-opacity="1" stop-color="rgb(87.756348%, 78.271484%, 38.748169%)" offset="0.53125"/><stop stop-opacity="1" stop-color="rgb(87.95929%, 78.507996%, 39.118958%)" offset="0.539062"/><stop stop-opacity="1" stop-color="rgb(88.162231%, 78.742981%, 39.489746%)" offset="0.546875"/><stop stop-opacity="1" stop-color="rgb(88.363647%, 78.977966%, 39.860535%)" offset="0.554688"/><stop stop-opacity="1" stop-color="rgb(88.566589%, 79.212952%, 40.231323%)" offset="0.5625"/><stop stop-opacity="1" stop-color="rgb(88.768005%, 79.447937%, 40.603638%)" offset="0.570312"/><stop stop-opacity="1" stop-color="rgb(88.970947%, 79.682922%, 40.974426%)" offset="0.578125"/><stop stop-opacity="1" stop-color="rgb(89.173889%, 79.917908%, 41.345215%)" offset="0.585937"/><stop stop-opacity="1" stop-color="rgb(89.375305%, 80.152893%, 41.716003%)" offset="0.59375"/><stop stop-opacity="1" stop-color="rgb(89.578247%, 80.387878%, 42.086792%)" offset="0.601562"/><stop stop-opacity="1" stop-color="rgb(89.779663%, 80.62439%, 42.459106%)" offset="0.609375"/><stop stop-opacity="1" stop-color="rgb(89.982605%, 80.859375%, 42.829895%)" offset="0.617187"/><stop stop-opacity="1" stop-color="rgb(90.185547%, 81.09436%, 43.200684%)" offset="0.625"/><stop stop-opacity="1" stop-color="rgb(90.386963%, 81.329346%, 43.571472%)" offset="0.632812"/><stop stop-opacity="1" stop-color="rgb(90.589905%, 81.564331%, 43.942261%)" offset="0.640625"/><stop stop-opacity="1" stop-color="rgb(90.792847%, 81.799316%, 44.314575%)" offset="0.648437"/><stop stop-opacity="1" stop-color="rgb(90.994263%, 82.034302%, 44.685364%)" offset="0.65625"/><stop stop-opacity="1" stop-color="rgb(91.197205%, 82.269287%, 45.056152%)" offset="0.664062"/><stop stop-opacity="1" stop-color="rgb(91.398621%, 82.504272%, 45.426941%)" offset="0.671875"/><stop stop-opacity="1" stop-color="rgb(91.601562%, 82.740784%, 45.797729%)" offset="0.679687"/><stop stop-opacity="1" stop-color="rgb(91.804504%, 82.975769%, 46.170044%)" offset="0.6875"/><stop stop-opacity="1" stop-color="rgb(92.00592%, 83.210754%, 46.540833%)" offset="0.695312"/><stop stop-opacity="1" stop-color="rgb(92.208862%, 83.44574%, 46.911621%)" offset="0.703125"/><stop stop-opacity="1" stop-color="rgb(92.410278%, 83.680725%, 47.28241%)" offset="0.710937"/><stop stop-opacity="1" stop-color="rgb(92.61322%, 83.91571%, 47.653198%)" offset="0.71875"/><stop stop-opacity="1" stop-color="rgb(92.816162%, 84.150696%, 48.025513%)" offset="0.726562"/><stop stop-opacity="1" stop-color="rgb(93.017578%, 84.385681%, 48.396301%)" offset="0.734375"/><stop stop-opacity="1" stop-color="rgb(93.22052%, 84.620667%, 48.76709%)" offset="0.742187"/><stop stop-opacity="1" stop-color="rgb(93.421936%, 84.857178%, 49.137878%)" offset="0.75"/><stop stop-opacity="1" stop-color="rgb(93.624878%, 85.092163%, 49.508667%)" offset="0.757812"/><stop stop-opacity="1" stop-color="rgb(93.82782%, 85.327148%, 49.880981%)" offset="0.765625"/><stop stop-opacity="1" stop-color="rgb(94.029236%, 85.562134%, 50.25177%)" offset="0.773437"/><stop stop-opacity="1" stop-color="rgb(94.232178%, 85.797119%, 50.622559%)" offset="0.78125"/><stop stop-opacity="1" stop-color="rgb(94.433594%, 86.032104%, 50.993347%)" offset="0.789062"/><stop stop-opacity="1" stop-color="rgb(94.636536%, 86.26709%, 51.364136%)" offset="0.796875"/><stop stop-opacity="1" stop-color="rgb(94.839478%, 86.502075%, 51.73645%)" offset="0.804688"/><stop stop-opacity="1" stop-color="rgb(95.040894%, 86.738586%, 52.107239%)" offset="0.8125"/><stop stop-opacity="1" stop-color="rgb(95.243835%, 86.973572%, 52.478027%)" offset="0.820312"/><stop stop-opacity="1" stop-color="rgb(95.446777%, 87.208557%, 52.848816%)" offset="0.828125"/><stop stop-opacity="1" stop-color="rgb(95.648193%, 87.443542%, 53.219604%)" offset="0.835937"/><stop stop-opacity="1" stop-color="rgb(95.851135%, 87.678528%, 53.591919%)" offset="0.84375"/><stop stop-opacity="1" stop-color="rgb(96.052551%, 87.913513%, 53.962708%)" offset="0.851562"/><stop stop-opacity="1" stop-color="rgb(96.255493%, 88.148499%, 54.333496%)" offset="0.859375"/><stop stop-opacity="1" stop-color="rgb(96.458435%, 88.383484%, 54.704285%)" offset="0.867187"/><stop stop-opacity="1" stop-color="rgb(96.659851%, 88.618469%, 55.075073%)" offset="0.875"/><stop stop-opacity="1" stop-color="rgb(96.862793%, 88.85498%, 55.447388%)" offset="0.882812"/><stop stop-opacity="1" stop-color="rgb(97.064209%, 89.089966%, 55.818176%)" offset="0.890625"/><stop stop-opacity="1" stop-color="rgb(97.267151%, 89.324951%, 56.188965%)" offset="0.898437"/><stop stop-opacity="1" stop-color="rgb(97.470093%, 89.559937%, 56.559753%)" offset="0.90625"/><stop stop-opacity="1" stop-color="rgb(97.671509%, 89.794922%, 56.930542%)" offset="0.914062"/><stop stop-opacity="1" stop-color="rgb(97.874451%, 90.029907%, 57.302856%)" offset="0.921875"/><stop stop-opacity="1" stop-color="rgb(98.075867%, 90.264893%, 57.673645%)" offset="0.929687"/><stop stop-opacity="1" stop-color="rgb(98.278809%, 90.499878%, 58.044434%)" offset="0.9375"/><stop stop-opacity="1" stop-color="rgb(98.48175%, 90.734863%, 58.415222%)" offset="0.945312"/><stop stop-opacity="1" stop-color="rgb(98.683167%, 90.971375%, 58.786011%)" offset="0.953125"/><stop stop-opacity="1" stop-color="rgb(98.886108%, 91.20636%, 59.158325%)" offset="0.960937"/><stop stop-opacity="1" stop-color="rgb(99.087524%, 91.441345%, 59.529114%)" offset="0.96875"/><stop stop-opacity="1" stop-color="rgb(99.290466%, 91.676331%, 59.899902%)" offset="0.976562"/><stop stop-opacity="1" stop-color="rgb(99.493408%, 91.911316%, 60.270691%)" offset="0.984375"/><stop stop-opacity="1" stop-color="rgb(99.694824%, 92.146301%, 60.641479%)" offset="0.992187"/><stop stop-opacity="1" stop-color="rgb(99.897766%, 92.381287%, 61.013794%)" offset="1"/></linearGradient></defs><g clip-path="url(#5fbc1224bc)"><g clip-path="url(#3fac4069b9)"><path fill="url(#f3f7b23a52)" d="M 76.234375 76.234375 L 76.234375 298.765625 L 298.765625 298.765625 L 298.765625 76.234375 Z M 76.234375 76.234375 " fill-rule="nonzero"/></g></g><path fill="#ffffff" d="M 204.722656 229.792969 C 195.195312 224.703125 188.304688 216.382812 182.480469 207.472656 C 179.605469 203.078125 176.9375 198.546875 174.144531 194.101562 C 171.023438 189.132812 167.617188 184.363281 164.246094 179.5625 C 160.773438 174.617188 157.351562 169.605469 154.558594 164.234375 C 151.820312 158.972656 149.558594 153.195312 149.074219 147.234375 C 148.609375 141.515625 150.011719 135.753906 154.085938 131.566406 C 157.828125 127.726562 163.132812 125.738281 168.472656 126.441406 C 173.828125 127.148438 178.773438 130.265625 182.125 134.445312 C 185.835938 139.070312 187.441406 145.007812 188.53125 150.726562 C 188.816406 152.207031 189.066406 153.691406 189.316406 155.175781 C 189.46875 156.085938 190.917969 156.039062 191.105469 155.175781 C 192.097656 150.613281 196.226562 147.800781 200.160156 145.859375 C 202.40625 144.75 204.753906 143.871094 207.125 143.074219 C 209.671875 142.21875 212.246094 141.425781 214.882812 140.910156 C 219.429688 140.019531 225.585938 139.847656 228.371094 144.359375 C 230.886719 148.433594 228.84375 153.886719 226.871094 157.742188 C 223.953125 163.457031 220.410156 168.878906 216.910156 174.246094 C 213.328125 179.746094 209.648438 185.183594 206.183594 190.757812 C 199.519531 201.476562 193.746094 212.738281 188.960938 224.417969 C 184.238281 235.949219 180.5 247.882812 177.847656 260.0625 C 177.523438 261.558594 177.214844 263.058594 176.917969 264.5625 C 176.691406 265.730469 178.480469 266.230469 178.707031 265.058594 C 181.175781 252.433594 184.796875 240.042969 189.488281 228.066406 C 194.238281 215.9375 200.09375 204.246094 206.890625 193.140625 C 210.433594 187.359375 214.226562 181.738281 217.9375 176.0625 C 221.570312 170.511719 225.210938 164.914062 228.292969 159.03125 C 230.492188 154.832031 232.542969 149.355469 230.605469 144.683594 C 228.476562 139.546875 222.671875 138.167969 217.636719 138.644531 C 214.851562 138.90625 212.121094 139.566406 209.449219 140.378906 C 206.941406 141.140625 204.453125 141.984375 202.035156 142.992188 C 197.660156 144.8125 192.90625 147.289062 190.496094 151.582031 C 189.953125 152.550781 189.550781 153.597656 189.316406 154.683594 L 191.105469 154.683594 C 190.070312 148.515625 188.941406 142.214844 185.839844 136.695312 C 183.039062 131.710938 178.59375 127.773438 173.230469 125.75 C 167.871094 123.726562 161.894531 124.085938 156.941406 126.988281 C 152.085938 129.832031 148.671875 134.679688 147.585938 140.199219 C 146.347656 146.503906 147.78125 153.027344 150.097656 158.917969 C 152.359375 164.675781 155.53125 170.007812 158.957031 175.136719 C 162.480469 180.417969 166.28125 185.507812 169.800781 190.792969 C 172.835938 195.347656 175.613281 200.066406 178.515625 204.707031 C 184.347656 214.03125 190.890625 223.191406 200.226562 229.292969 C 201.378906 230.050781 202.570312 230.746094 203.785156 231.398438 C 204.835938 231.960938 205.773438 230.359375 204.722656 229.792969 Z M 204.722656 229.792969 " fill-opacity="1" fill-rule="nonzero"/><g fill="#000000" fill-opacity="1"><g transform="translate(64.087434, 214.496002)"><g><path d="M 72.09375 -30.09375 C 71.945312 -30.070312 71.789062 -30.070312 71.625 -30.09375 C 71.457031 -30.125 71.304688 -30.195312 71.171875 -30.3125 C 70.992188 -30.476562 70.914062 -30.628906 70.9375 -30.765625 C 70.96875 -30.910156 71.03125 -31.046875 71.125 -31.171875 C 72.476562 -33.347656 73.648438 -35.628906 74.640625 -38.015625 C 75.273438 -39.484375 75.832031 -40.992188 76.3125 -42.546875 C 76.613281 -43.515625 76.640625 -44.554688 76.390625 -45.671875 C 76.140625 -46.847656 75.425781 -47.679688 74.25 -48.171875 C 73.351562 -48.515625 72.4375 -48.695312 71.5 -48.71875 C 71.320312 -48.71875 71.148438 -48.71875 70.984375 -48.71875 C 69.003906 -48.644531 67.078125 -48.363281 65.203125 -47.875 C 61.972656 -47.082031 58.847656 -46.101562 55.828125 -44.9375 C 52.804688 -43.769531 49.847656 -42.5 46.953125 -41.125 C 34.285156 -34.957031 22.945312 -27.171875 12.9375 -17.765625 C 10.40625 -15.492188 8.191406 -12.957031 6.296875 -10.15625 C 5.640625 -9.15625 5.0625 -8.101562 4.5625 -7 C 4.28125 -6.382812 4.082031 -5.71875 3.96875 -5 C 3.539062 -2.707031 4.53125 -0.992188 6.9375 0.140625 C 8.976562 1.078125 11.046875 1.601562 13.140625 1.71875 C 14.796875 1.863281 16.398438 1.9375 17.953125 1.9375 C 18.691406 1.9375 19.40625 1.90625 20.09375 1.84375 C 30.007812 1.738281 39.378906 0.445312 48.203125 -2.03125 C 48.335938 -2.082031 48.476562 -2.117188 48.625 -2.140625 C 49.21875 -2.347656 49.84375 -2.507812 50.5 -2.625 C 50.664062 -2.65625 50.941406 -2.679688 51.328125 -2.703125 C 51.722656 -2.734375 52.097656 -2.710938 52.453125 -2.640625 C 52.804688 -2.566406 53.03125 -2.398438 53.125 -2.140625 C 53.15625 -2.003906 53.132812 -1.898438 53.0625 -1.828125 C 52.988281 -1.753906 52.878906 -1.707031 52.734375 -1.6875 C 52.191406 -1.539062 51.660156 -1.394531 51.140625 -1.25 C 49.535156 -0.832031 47.941406 -0.421875 46.359375 -0.015625 C 37.429688 2.273438 28.160156 3.390625 18.546875 3.328125 C 16.554688 3.328125 14.566406 3.285156 12.578125 3.203125 C 10.347656 3.117188 8.113281 2.648438 5.875 1.796875 C 1.414062 0.0664062 -0.140625 -2.78125 1.203125 -6.75 C 1.742188 -8.332031 2.507812 -9.796875 3.5 -11.140625 C 4.875 -13.117188 6.398438 -14.957031 8.078125 -16.65625 C 9.753906 -18.363281 11.503906 -20.007812 13.328125 -21.59375 C 21.429688 -28.738281 30.347656 -34.875 40.078125 -40 C 43.054688 -41.5625 46.085938 -43.015625 49.171875 -44.359375 C 52.253906 -45.703125 55.441406 -46.890625 58.734375 -47.921875 C 61.492188 -48.796875 64.328125 -49.460938 67.234375 -49.921875 C 68.410156 -50.085938 69.578125 -50.171875 70.734375 -50.171875 C 71.492188 -50.171875 72.265625 -50.144531 73.046875 -50.09375 C 73.941406 -50 74.84375 -49.8125 75.75 -49.53125 C 78.195312 -48.65625 79.445312 -47.035156 79.5 -44.671875 C 79.5 -43.628906 79.359375 -42.625 79.078125 -41.65625 C 78.484375 -39.789062 77.753906 -37.992188 76.890625 -36.265625 C 76.023438 -34.535156 75.097656 -32.847656 74.109375 -31.203125 C 73.816406 -30.640625 73.359375 -30.269531 72.734375 -30.09375 C 72.535156 -30.070312 72.351562 -30.070312 72.1875 -30.09375 Z M 72.09375 -30.09375 "/></g></g></g><g fill="#000000" fill-opacity="1"><g transform="translate(119.172262, 214.496002)"><g><path d="M 14.03125 -9.84375 C 14.332031 -9.675781 14.351562 -9.253906 14.09375 -8.578125 C 13.71875 -8.085938 13.316406 -7.628906 12.890625 -7.203125 C 12.460938 -6.785156 12 -6.410156 11.5 -6.078125 C 11.457031 -6.078125 11.4375 -6.0625 11.4375 -6.03125 C 11.101562 -5.800781 10.75 -5.601562 10.375 -5.4375 C 7.300781 -4.320312 5.734375 -4.972656 5.671875 -7.390625 C 4.421875 -6.304688 3.582031 -5.640625 3.15625 -5.390625 C 2.132812 -4.785156 1.03125 -4.515625 -0.15625 -4.578125 C -1.03125 -4.628906 -1.625 -4.894531 -1.9375 -5.375 C -2.257812 -5.863281 -2.234375 -6.519531 -1.859375 -7.34375 C -1.285156 -8.644531 -0.476562 -9.804688 0.5625 -10.828125 C 1.78125 -11.960938 3.140625 -12.867188 4.640625 -13.546875 C 5.441406 -13.953125 6.28125 -14.109375 7.15625 -14.015625 C 8.03125 -13.960938 8.554688 -13.46875 8.734375 -12.53125 C 8.816406 -12.25 8.75 -12 8.53125 -11.78125 C 8.238281 -11.519531 7.910156 -11.457031 7.546875 -11.59375 C 7.515625 -11.59375 7.472656 -11.597656 7.421875 -11.609375 C 7.378906 -11.628906 7.347656 -11.648438 7.328125 -11.671875 C 6.953125 -12.191406 6.570312 -12.410156 6.1875 -12.328125 C 5.8125 -12.242188 5.410156 -12.070312 4.984375 -11.8125 C 3.003906 -10.65625 1.53125 -9.035156 0.5625 -6.953125 C 0.507812 -6.867188 0.472656 -6.769531 0.453125 -6.65625 C 0.441406 -6.550781 0.476562 -6.46875 0.5625 -6.40625 C 0.789062 -6.320312 1.046875 -6.332031 1.328125 -6.4375 C 1.617188 -6.550781 1.90625 -6.710938 2.1875 -6.921875 C 2.46875 -7.140625 2.707031 -7.320312 2.90625 -7.46875 C 2.925781 -7.5 2.9375 -7.515625 2.9375 -7.515625 C 3.875 -8.304688 4.796875 -9.113281 5.703125 -9.9375 C 6.097656 -10.363281 6.59375 -10.601562 7.1875 -10.65625 C 8.039062 -10.65625 8.394531 -10.273438 8.25 -9.515625 C 8.175781 -9.234375 8.09375 -8.945312 8 -8.65625 C 7.664062 -7.4375 7.648438 -6.71875 7.953125 -6.5 C 8.265625 -6.289062 8.738281 -6.289062 9.375 -6.5 C 10.019531 -6.71875 10.660156 -7.125 11.296875 -7.71875 C 11.929688 -8.320312 12.46875 -8.867188 12.90625 -9.359375 C 13.351562 -9.859375 13.726562 -10.019531 14.03125 -9.84375 Z M 14.03125 -9.84375 "/></g></g></g><g fill="#000000" fill-opacity="1"><g transform="translate(131.991235, 214.496002)"><g><path d="M 12.078125 -9.34375 C 10.359375 -7.300781 8.671875 -5.796875 7.015625 -4.828125 C 5.359375 -3.867188 3.582031 -3.550781 1.6875 -3.875 C -0.195312 -4.207031 -0.972656 -5.472656 -0.640625 -7.671875 C -0.410156 -8.785156 -0.09375 -9.867188 0.3125 -10.921875 C 1.300781 -13.378906 2.304688 -15.828125 3.328125 -18.265625 C 3.660156 -19.140625 4.015625 -20.023438 4.390625 -20.921875 C 4.484375 -21.109375 4.566406 -21.300781 4.640625 -21.5 C 4.785156 -21.820312 4.925781 -22.148438 5.0625 -22.484375 C 5.269531 -23.046875 5.046875 -23.34375 4.390625 -23.375 C 4.015625 -23.375 3.644531 -23.375 3.28125 -23.375 C 3.113281 -23.375 2.925781 -23.375 2.71875 -23.375 C 2.53125 -23.34375 2.332031 -23.316406 2.125 -23.296875 C 1.789062 -23.265625 1.457031 -23.25 1.125 -23.25 C 0.800781 -23.25 0.5 -23.335938 0.21875 -23.515625 C 0.132812 -23.535156 0.0703125 -23.582031 0.03125 -23.65625 C -0.0078125 -23.726562 -0.03125 -23.804688 -0.03125 -23.890625 C -0.0078125 -23.941406 0.0234375 -24.003906 0.078125 -24.078125 C 0.140625 -24.148438 0.21875 -24.195312 0.3125 -24.21875 C 0.59375 -24.332031 0.890625 -24.414062 1.203125 -24.46875 C 1.992188 -24.507812 2.785156 -24.546875 3.578125 -24.578125 C 3.890625 -24.578125 4.160156 -24.578125 4.390625 -24.578125 C 4.898438 -24.578125 5.28125 -24.59375 5.53125 -24.625 C 5.789062 -24.664062 5.992188 -24.800781 6.140625 -25.03125 C 6.296875 -25.269531 6.476562 -25.625 6.6875 -26.09375 C 6.800781 -26.351562 6.941406 -26.640625 7.109375 -26.953125 C 7.535156 -27.847656 7.960938 -28.769531 8.390625 -29.71875 C 8.585938 -30.144531 8.785156 -30.554688 8.984375 -30.953125 C 9.148438 -31.347656 9.414062 -31.65625 9.78125 -31.875 C 10.125 -32.039062 10.425781 -32.03125 10.6875 -31.84375 C 10.769531 -31.789062 10.832031 -31.707031 10.875 -31.59375 C 10.914062 -31.476562 10.9375 -31.375 10.9375 -31.28125 C 10.9375 -30.78125 10.8125 -30.285156 10.5625 -29.796875 C 10.507812 -29.691406 10.445312 -29.566406 10.375 -29.421875 C 10.207031 -28.960938 10.03125 -28.492188 9.84375 -28.015625 C 9.46875 -27.140625 9.113281 -26.242188 8.78125 -25.328125 C 8.6875 -25.160156 8.679688 -25.007812 8.765625 -24.875 C 8.847656 -24.75 8.972656 -24.6875 9.140625 -24.6875 C 10.054688 -24.664062 10.953125 -24.65625 11.828125 -24.65625 C 12.285156 -24.65625 12.738281 -24.65625 13.1875 -24.65625 C 14.601562 -24.625 15.171875 -24.421875 14.890625 -24.046875 C 14.691406 -23.828125 14.476562 -23.703125 14.25 -23.671875 C 14.03125 -23.640625 13.804688 -23.644531 13.578125 -23.6875 C 13.429688 -23.6875 13.285156 -23.6875 13.140625 -23.6875 C 11.703125 -23.59375 10.273438 -23.535156 8.859375 -23.515625 C 8.203125 -23.515625 7.765625 -23.21875 7.546875 -22.625 C 7.304688 -22.050781 7.078125 -21.484375 6.859375 -20.921875 C 6.535156 -20.171875 6.234375 -19.441406 5.953125 -18.734375 C 5.671875 -18.066406 5.390625 -17.390625 5.109375 -16.703125 C 4.367188 -14.972656 3.660156 -13.238281 2.984375 -11.5 C 2.554688 -10.363281 2.21875 -9.203125 1.96875 -8.015625 C 1.425781 -5.867188 2.257812 -5.046875 4.46875 -5.546875 C 6.632812 -6.066406 8.898438 -7.628906 11.265625 -10.234375 C 12.296875 -10.890625 12.566406 -10.59375 12.078125 -9.34375 Z M 12.078125 -9.34375 "/></g></g></g><g fill="#000000" fill-opacity="1"><g transform="translate(142.973397, 214.496002)"><g><path d="M 7.6875 -8.140625 C 7 -7.328125 6.179688 -6.578125 5.234375 -5.890625 C 4.296875 -5.210938 3.234375 -4.753906 2.046875 -4.515625 C 0.859375 -4.273438 -0.0625 -4.359375 -0.71875 -4.765625 C -1.375 -5.179688 -1.503906 -6.097656 -1.109375 -7.515625 C -0.585938 -8.984375 0.125 -10.382812 1.03125 -11.71875 C 1.226562 -12 1.519531 -12.195312 1.90625 -12.3125 C 2.195312 -12.375 2.445312 -12.320312 2.65625 -12.15625 C 2.875 -12 2.957031 -11.800781 2.90625 -11.5625 C 2.707031 -11.09375 2.488281 -10.625 2.25 -10.15625 C 2.019531 -9.695312 1.867188 -9.398438 1.796875 -9.265625 C 1.347656 -8.429688 1.03125 -7.566406 0.84375 -6.671875 C 0.84375 -6.148438 1.53125 -6.113281 2.90625 -6.5625 C 4.289062 -7.019531 5.632812 -7.847656 6.9375 -9.046875 C 8.238281 -10.253906 8.859375 -10.609375 8.796875 -10.109375 C 8.742188 -9.617188 8.375 -8.960938 7.6875 -8.140625 Z M 4.3125 -14.609375 C 4.25 -14.554688 4.113281 -14.492188 3.90625 -14.421875 C 3.707031 -14.359375 3.492188 -14.3125 3.265625 -14.28125 C 3.046875 -14.25 2.867188 -14.28125 2.734375 -14.375 C 2.609375 -14.476562 2.601562 -14.6875 2.71875 -15 C 2.925781 -15.539062 3.144531 -16.015625 3.375 -16.421875 C 3.601562 -16.828125 3.894531 -17.273438 4.25 -17.765625 C 4.476562 -17.984375 4.726562 -18.101562 5 -18.125 C 5.269531 -18.144531 5.492188 -18.070312 5.671875 -17.90625 C 5.859375 -17.75 5.914062 -17.53125 5.84375 -17.25 C 5.550781 -16.226562 5.039062 -15.347656 4.3125 -14.609375 Z M 4.3125 -14.609375 "/></g></g></g><g fill="#000000" fill-opacity="1"><g transform="translate(150.524928, 214.496002)"><g/></g></g><g fill="#000000" fill-opacity="1"><g transform="translate(139.784264, 263.345584)"><g><path d="M 5.21875 -8.890625 C 5.476562 -9.117188 5.757812 -9.289062 6.0625 -9.40625 C 6.375 -9.519531 6.691406 -9.59375 7.015625 -9.625 C 7.347656 -9.65625 7.6875 -9.640625 8.03125 -9.578125 C 8.375 -9.523438 8.703125 -9.429688 9.015625 -9.296875 C 9.535156 -9.078125 9.96875 -8.800781 10.3125 -8.46875 C 10.664062 -8.132812 10.925781 -7.769531 11.09375 -7.375 C 11.269531 -6.976562 11.359375 -6.566406 11.359375 -6.140625 C 11.359375 -5.710938 11.28125 -5.304688 11.125 -4.921875 C 10.925781 -4.453125 10.613281 -4.039062 10.1875 -3.6875 C 9.769531 -3.34375 9.226562 -3.113281 8.5625 -3 C 9.0625 -2.457031 9.363281 -1.882812 9.46875 -1.28125 C 9.570312 -0.675781 9.519531 -0.113281 9.3125 0.40625 C 9.09375 0.914062 8.796875 1.316406 8.421875 1.609375 C 8.054688 1.910156 7.648438 2.117188 7.203125 2.234375 C 6.765625 2.359375 6.304688 2.394531 5.828125 2.34375 C 5.359375 2.289062 4.898438 2.171875 4.453125 1.984375 C 4.078125 1.816406 3.71875 1.609375 3.375 1.359375 C 3.039062 1.109375 2.757812 0.820312 2.53125 0.5 C 2.300781 0.175781 2.128906 -0.175781 2.015625 -0.5625 C 1.910156 -0.957031 1.882812 -1.367188 1.9375 -1.796875 L 3.109375 -1.765625 C 3.054688 -1.441406 3.0625 -1.140625 3.125 -0.859375 C 3.1875 -0.578125 3.296875 -0.3125 3.453125 -0.0625 C 3.617188 0.175781 3.820312 0.390625 4.0625 0.578125 C 4.300781 0.765625 4.5625 0.914062 4.84375 1.03125 C 5.144531 1.15625 5.46875 1.234375 5.8125 1.265625 C 6.15625 1.296875 6.484375 1.269531 6.796875 1.1875 C 7.109375 1.113281 7.382812 0.96875 7.625 0.75 C 7.875 0.539062 8.078125 0.257812 8.234375 -0.09375 C 8.335938 -0.351562 8.394531 -0.628906 8.40625 -0.921875 C 8.414062 -1.210938 8.363281 -1.492188 8.25 -1.765625 C 8.132812 -2.046875 7.953125 -2.3125 7.703125 -2.5625 C 7.460938 -2.8125 7.148438 -3.015625 6.765625 -3.171875 L 5.328125 -3.78125 L 5.734375 -4.734375 L 6.90625 -4.234375 C 7.28125 -4.078125 7.632812 -3.992188 7.96875 -3.984375 C 8.300781 -3.984375 8.601562 -4.035156 8.875 -4.140625 C 9.144531 -4.253906 9.378906 -4.414062 9.578125 -4.625 C 9.773438 -4.832031 9.925781 -5.066406 10.03125 -5.328125 C 10.144531 -5.578125 10.203125 -5.84375 10.203125 -6.125 C 10.210938 -6.414062 10.160156 -6.695312 10.046875 -6.96875 C 9.941406 -7.25 9.769531 -7.503906 9.53125 -7.734375 C 9.289062 -7.972656 8.984375 -8.171875 8.609375 -8.328125 C 8.140625 -8.523438 7.664062 -8.609375 7.1875 -8.578125 C 6.71875 -8.546875 6.304688 -8.351562 5.953125 -8 Z M 5.21875 -8.890625 "/></g></g></g><g fill="#000000" fill-opacity="1"><g transform="translate(152.506101, 268.424065)"><g><path d="M 4.140625 -8.390625 L 6.96875 -9.890625 C 7.195312 -9.992188 7.410156 -10.082031 7.609375 -10.15625 C 7.816406 -10.238281 8.039062 -10.242188 8.28125 -10.171875 C 8.53125 -10.097656 8.722656 -9.953125 8.859375 -9.734375 C 9.003906 -9.515625 9.023438 -9.21875 8.921875 -8.84375 L 5.90625 1.6875 L 4.796875 1.375 L 7.75 -8.953125 L 4.671875 -7.359375 Z M 4.140625 -8.390625 "/></g></g></g><g fill="#000000" fill-opacity="1"><g transform="translate(165.656596, 271.863404)"><g><path d="M 1.125 -0.453125 C 1.164062 -0.679688 1.269531 -0.851562 1.4375 -0.96875 C 1.601562 -1.082031 1.800781 -1.113281 2.03125 -1.0625 C 2.25 -1.03125 2.414062 -0.925781 2.53125 -0.75 C 2.65625 -0.582031 2.695312 -0.382812 2.65625 -0.15625 C 2.613281 0.0507812 2.503906 0.210938 2.328125 0.328125 C 2.160156 0.441406 1.96875 0.484375 1.75 0.453125 C 1.519531 0.398438 1.347656 0.285156 1.234375 0.109375 C 1.117188 -0.0546875 1.082031 -0.242188 1.125 -0.453125 Z M 1.125 -0.453125 "/></g></g></g><g fill="#000000" fill-opacity="1"><g transform="translate(172.927545, 273.21659)"><g><path d="M 8.84375 -2.375 C 8.789062 -1.8125 8.640625 -1.332031 8.390625 -0.9375 C 8.148438 -0.550781 7.84375 -0.238281 7.46875 0 C 7.09375 0.25 6.675781 0.421875 6.21875 0.515625 C 5.769531 0.609375 5.3125 0.632812 4.84375 0.59375 C 4.394531 0.539062 3.957031 0.425781 3.53125 0.25 C 3.113281 0.0703125 2.742188 -0.171875 2.421875 -0.484375 C 2.109375 -0.796875 1.867188 -1.164062 1.703125 -1.59375 C 1.546875 -2.03125 1.492188 -2.53125 1.546875 -3.09375 L 2.078125 -8.515625 C 2.140625 -9.085938 2.289062 -9.570312 2.53125 -9.96875 C 2.78125 -10.363281 3.085938 -10.6875 3.453125 -10.9375 C 3.828125 -11.1875 4.238281 -11.359375 4.6875 -11.453125 C 5.144531 -11.546875 5.597656 -11.566406 6.046875 -11.515625 C 6.515625 -11.472656 6.957031 -11.363281 7.375 -11.1875 C 7.800781 -11.007812 8.175781 -10.757812 8.5 -10.4375 C 8.820312 -10.125 9.0625 -9.75 9.21875 -9.3125 C 9.382812 -8.875 9.4375 -8.367188 9.375 -7.796875 Z M 2.6875 -2.984375 C 2.65625 -2.597656 2.695312 -2.253906 2.8125 -1.953125 C 2.925781 -1.648438 3.085938 -1.394531 3.296875 -1.1875 C 3.515625 -0.976562 3.769531 -0.804688 4.0625 -0.671875 C 4.363281 -0.546875 4.660156 -0.46875 4.953125 -0.4375 C 5.273438 -0.40625 5.585938 -0.425781 5.890625 -0.5 C 6.203125 -0.570312 6.484375 -0.6875 6.734375 -0.84375 C 6.992188 -1.007812 7.210938 -1.226562 7.390625 -1.5 C 7.566406 -1.78125 7.671875 -2.113281 7.703125 -2.5 L 8.234375 -7.921875 C 8.273438 -8.316406 8.234375 -8.660156 8.109375 -8.953125 C 7.992188 -9.253906 7.828125 -9.515625 7.609375 -9.734375 C 7.390625 -9.953125 7.132812 -10.125 6.84375 -10.25 C 6.5625 -10.375 6.257812 -10.453125 5.9375 -10.484375 C 5.644531 -10.515625 5.335938 -10.492188 5.015625 -10.421875 C 4.703125 -10.359375 4.421875 -10.238281 4.171875 -10.0625 C 3.921875 -9.894531 3.707031 -9.675781 3.53125 -9.40625 C 3.363281 -9.132812 3.257812 -8.800781 3.21875 -8.40625 Z M 2.6875 -2.984375 "/></g></g></g><g fill="#000000" fill-opacity="1"><g transform="translate(186.580444, 274.327798)"><g><path d="M 4.890625 0.015625 C 4.265625 0.0234375 3.707031 -0.0625 3.21875 -0.25 C 2.738281 -0.445312 2.335938 -0.710938 2.015625 -1.046875 C 1.691406 -1.390625 1.441406 -1.773438 1.265625 -2.203125 C 1.085938 -2.628906 1 -3.0625 1 -3.5 C 0.988281 -3.820312 1.023438 -4.140625 1.109375 -4.453125 C 1.191406 -4.773438 1.316406 -5.070312 1.484375 -5.34375 C 1.660156 -5.625 1.878906 -5.878906 2.140625 -6.109375 C 2.398438 -6.347656 2.710938 -6.546875 3.078125 -6.703125 C 2.554688 -6.960938 2.164062 -7.3125 1.90625 -7.75 C 1.65625 -8.1875 1.523438 -8.648438 1.515625 -9.140625 C 1.515625 -9.503906 1.578125 -9.863281 1.703125 -10.21875 C 1.835938 -10.582031 2.035156 -10.90625 2.296875 -11.1875 C 2.566406 -11.46875 2.898438 -11.695312 3.296875 -11.875 C 3.691406 -12.050781 4.144531 -12.144531 4.65625 -12.15625 C 5.175781 -12.164062 5.632812 -12.085938 6.03125 -11.921875 C 6.425781 -11.765625 6.757812 -11.550781 7.03125 -11.28125 C 7.3125 -11.007812 7.523438 -10.695312 7.671875 -10.34375 C 7.816406 -9.988281 7.890625 -9.628906 7.890625 -9.265625 C 7.898438 -8.773438 7.785156 -8.304688 7.546875 -7.859375 C 7.316406 -7.410156 6.957031 -7.046875 6.46875 -6.765625 C 6.832031 -6.628906 7.148438 -6.445312 7.421875 -6.21875 C 7.691406 -6 7.914062 -5.753906 8.09375 -5.484375 C 8.28125 -5.210938 8.421875 -4.921875 8.515625 -4.609375 C 8.609375 -4.296875 8.660156 -3.976562 8.671875 -3.65625 C 8.671875 -3.21875 8.59375 -2.78125 8.4375 -2.34375 C 8.28125 -1.90625 8.039062 -1.507812 7.71875 -1.15625 C 7.40625 -0.8125 7.015625 -0.53125 6.546875 -0.3125 C 6.078125 -0.101562 5.523438 0.00390625 4.890625 0.015625 Z M 4.75 -7.21875 C 5.082031 -7.226562 5.375 -7.289062 5.625 -7.40625 C 5.882812 -7.519531 6.097656 -7.664062 6.265625 -7.84375 C 6.429688 -8.03125 6.550781 -8.238281 6.625 -8.46875 C 6.707031 -8.707031 6.742188 -8.953125 6.734375 -9.203125 C 6.734375 -9.441406 6.6875 -9.675781 6.59375 -9.90625 C 6.507812 -10.144531 6.378906 -10.351562 6.203125 -10.53125 C 6.023438 -10.71875 5.804688 -10.863281 5.546875 -10.96875 C 5.296875 -11.070312 5.003906 -11.117188 4.671875 -11.109375 C 4.335938 -11.109375 4.046875 -11.050781 3.796875 -10.9375 C 3.546875 -10.820312 3.335938 -10.671875 3.171875 -10.484375 C 3.003906 -10.296875 2.878906 -10.082031 2.796875 -9.84375 C 2.722656 -9.601562 2.6875 -9.363281 2.6875 -9.125 C 2.695312 -8.875 2.742188 -8.632812 2.828125 -8.40625 C 2.921875 -8.175781 3.054688 -7.972656 3.234375 -7.796875 C 3.410156 -7.617188 3.625 -7.476562 3.875 -7.375 C 4.125 -7.269531 4.414062 -7.21875 4.75 -7.21875 Z M 4.875 -1.015625 C 5.320312 -1.023438 5.707031 -1.109375 6.03125 -1.265625 C 6.351562 -1.421875 6.625 -1.617188 6.84375 -1.859375 C 7.070312 -2.109375 7.238281 -2.390625 7.34375 -2.703125 C 7.445312 -3.015625 7.5 -3.332031 7.5 -3.65625 C 7.488281 -3.976562 7.425781 -4.289062 7.3125 -4.59375 C 7.195312 -4.894531 7.019531 -5.164062 6.78125 -5.40625 C 6.550781 -5.644531 6.269531 -5.832031 5.9375 -5.96875 C 5.601562 -6.113281 5.210938 -6.179688 4.765625 -6.171875 C 4.328125 -6.160156 3.941406 -6.078125 3.609375 -5.921875 C 3.285156 -5.773438 3.015625 -5.578125 2.796875 -5.328125 C 2.578125 -5.078125 2.410156 -4.796875 2.296875 -4.484375 C 2.191406 -4.179688 2.144531 -3.867188 2.15625 -3.546875 C 2.15625 -3.222656 2.210938 -2.90625 2.328125 -2.59375 C 2.453125 -2.289062 2.628906 -2.019531 2.859375 -1.78125 C 3.085938 -1.550781 3.367188 -1.363281 3.703125 -1.21875 C 4.046875 -1.070312 4.4375 -1.003906 4.875 -1.015625 Z M 4.875 -1.015625 "/></g></g></g><g fill="#000000" fill-opacity="1"><g transform="translate(200.160716, 273.745549)"><g><path d="M 0.9375 -0.765625 C 0.914062 -0.992188 0.96875 -1.1875 1.09375 -1.34375 C 1.21875 -1.5 1.394531 -1.59375 1.625 -1.625 C 1.84375 -1.644531 2.035156 -1.59375 2.203125 -1.46875 C 2.367188 -1.34375 2.460938 -1.164062 2.484375 -0.9375 C 2.515625 -0.71875 2.460938 -0.523438 2.328125 -0.359375 C 2.191406 -0.203125 2.015625 -0.113281 1.796875 -0.09375 C 1.566406 -0.0625 1.375 -0.109375 1.21875 -0.234375 C 1.0625 -0.367188 0.96875 -0.546875 0.9375 -0.765625 Z M 0.9375 -0.765625 "/></g></g></g><g fill="#000000" fill-opacity="1"><g transform="translate(207.508091, 272.900594)"><g><path d="M -0.640625 -9.875 C -0.585938 -10.28125 -0.476562 -10.640625 -0.3125 -10.953125 C -0.144531 -11.273438 0.0664062 -11.554688 0.328125 -11.796875 C 0.585938 -12.046875 0.878906 -12.25 1.203125 -12.40625 C 1.523438 -12.570312 1.859375 -12.691406 2.203125 -12.765625 C 2.617188 -12.847656 3.046875 -12.863281 3.484375 -12.8125 C 3.921875 -12.757812 4.320312 -12.628906 4.6875 -12.421875 C 5.0625 -12.210938 5.382812 -11.929688 5.65625 -11.578125 C 5.925781 -11.222656 6.117188 -10.78125 6.234375 -10.25 C 6.367188 -9.5625 6.34375 -8.847656 6.15625 -8.109375 C 5.976562 -7.378906 5.695312 -6.640625 5.3125 -5.890625 C 4.925781 -5.140625 4.472656 -4.398438 3.953125 -3.671875 C 3.429688 -2.941406 2.90625 -2.234375 2.375 -1.546875 L 8.21875 -2.75 L 8.421875 -1.71875 L 2.09375 -0.421875 C 1.769531 -0.359375 1.515625 -0.382812 1.328125 -0.5 C 1.148438 -0.625 1.039062 -0.789062 1 -1 C 0.96875 -1.15625 0.96875 -1.316406 1 -1.484375 C 1.039062 -1.660156 1.128906 -1.820312 1.265625 -1.96875 C 1.847656 -2.71875 2.394531 -3.441406 2.90625 -4.140625 C 3.425781 -4.847656 3.867188 -5.539062 4.234375 -6.21875 C 4.597656 -6.894531 4.859375 -7.550781 5.015625 -8.1875 C 5.179688 -8.832031 5.207031 -9.445312 5.09375 -10.03125 C 5.019531 -10.382812 4.894531 -10.679688 4.71875 -10.921875 C 4.539062 -11.160156 4.320312 -11.347656 4.0625 -11.484375 C 3.8125 -11.628906 3.539062 -11.71875 3.25 -11.75 C 2.96875 -11.789062 2.691406 -11.785156 2.421875 -11.734375 C 1.953125 -11.640625 1.535156 -11.421875 1.171875 -11.078125 C 0.816406 -10.742188 0.597656 -10.289062 0.515625 -9.71875 Z M -0.640625 -9.875 "/></g></g></g><g fill="#000000" fill-opacity="1"><g transform="translate(220.883719, 269.946164)"><g><path d="M 1.703125 -12.640625 C 1.753906 -12.867188 1.847656 -13.054688 1.984375 -13.203125 C 2.117188 -13.347656 2.289062 -13.453125 2.5 -13.515625 C 2.757812 -13.609375 3.023438 -13.59375 3.296875 -13.46875 C 3.578125 -13.351562 3.773438 -13.125 3.890625 -12.78125 L 6.296875 -5.5 L 7.46875 -5.890625 L 7.796875 -4.859375 L 6.625 -4.46875 L 7.3125 -2.40625 L 6.203125 -2.046875 L 5.515625 -4.109375 L 1.015625 -2.625 C 0.753906 -2.539062 0.515625 -2.535156 0.296875 -2.609375 C 0.0859375 -2.691406 -0.0507812 -2.847656 -0.125 -3.078125 C -0.21875 -3.335938 -0.222656 -3.660156 -0.140625 -4.046875 Z M 0.984375 -3.75 L 5.1875 -5.140625 L 2.8125 -12.328125 Z M 0.984375 -3.75 "/></g></g></g><g fill="#000000" fill-opacity="1"><g transform="translate(233.723761, 265.40031)"><g/></g></g><g fill="#000000" fill-opacity="1"><g transform="translate(115.374792, 143.140557)"><g><path d="M 0.9375 -1.296875 C 0.820312 -1.128906 0.675781 -1.035156 0.5 -1.015625 C 0.320312 -0.992188 0.148438 -1.039062 -0.015625 -1.15625 L -6.5 -5.859375 C -6.675781 -5.984375 -6.78125 -6.132812 -6.8125 -6.3125 C -6.84375 -6.488281 -6.800781 -6.660156 -6.6875 -6.828125 L -3.6875 -10.96875 L -3.015625 -10.484375 L -5.875 -6.53125 L -3.0625 -4.484375 L -0.421875 -8.140625 L 0.234375 -7.65625 L -2.40625 -4 L 0.40625 -1.96875 L 3.40625 -6.109375 L 4.078125 -5.625 Z M 0.9375 -1.296875 "/></g></g></g><g fill="#000000" fill-opacity="1"><g transform="translate(121.167784, 135.357345)"><g><path d="M -1.90625 -4.234375 L 1.234375 -1.34375 L 0.625 -0.671875 L -5.78125 -6.5625 C -5.9375 -6.707031 -6.019531 -6.867188 -6.03125 -7.046875 C -6.050781 -7.234375 -5.988281 -7.40625 -5.84375 -7.5625 L -3.921875 -9.65625 C -3.628906 -9.96875 -3.316406 -10.191406 -2.984375 -10.328125 C -2.660156 -10.472656 -2.332031 -10.539062 -2 -10.53125 C -1.664062 -10.53125 -1.347656 -10.46875 -1.046875 -10.34375 C -0.742188 -10.21875 -0.476562 -10.046875 -0.25 -9.828125 C 0.0703125 -9.523438 0.316406 -9.160156 0.484375 -8.734375 C 0.648438 -8.316406 0.671875 -7.878906 0.546875 -7.421875 C 1.066406 -7.585938 1.570312 -7.609375 2.0625 -7.484375 C 2.5625 -7.359375 3.082031 -7.039062 3.625 -6.53125 L 4.921875 -5.34375 L 4.296875 -4.671875 L 3.015625 -5.84375 C 2.390625 -6.425781 1.773438 -6.695312 1.171875 -6.65625 C 0.566406 -6.613281 0.0234375 -6.332031 -0.453125 -5.8125 Z M -0.734375 -6.734375 C -0.546875 -6.941406 -0.414062 -7.15625 -0.34375 -7.375 C -0.28125 -7.59375 -0.257812 -7.8125 -0.28125 -8.03125 C -0.3125 -8.25 -0.375 -8.453125 -0.46875 -8.640625 C -0.570312 -8.835938 -0.703125 -9.007812 -0.859375 -9.15625 C -1.023438 -9.3125 -1.207031 -9.429688 -1.40625 -9.515625 C -1.613281 -9.609375 -1.828125 -9.65625 -2.046875 -9.65625 C -2.273438 -9.65625 -2.492188 -9.613281 -2.703125 -9.53125 C -2.921875 -9.445312 -3.125 -9.300781 -3.3125 -9.09375 L -5.09375 -7.15625 L -2.515625 -4.796875 Z M -0.734375 -6.734375 "/></g></g></g><g fill="#000000" fill-opacity="1"><g transform="translate(128.29153, 127.841237)"><g><path d="M -0.46875 -1.578125 C -0.28125 -1.628906 -0.0664062 -1.695312 0.171875 -1.78125 C 0.410156 -1.875 0.660156 -1.984375 0.921875 -2.109375 C 1.179688 -2.234375 1.429688 -2.375 1.671875 -2.53125 C 1.921875 -2.6875 2.148438 -2.859375 2.359375 -3.046875 C 2.585938 -3.234375 2.785156 -3.429688 2.953125 -3.640625 C 3.117188 -3.859375 3.234375 -4.082031 3.296875 -4.3125 C 3.359375 -4.539062 3.359375 -4.785156 3.296875 -5.046875 C 3.234375 -5.304688 3.09375 -5.5625 2.875 -5.8125 C 2.664062 -6.050781 2.4375 -6.207031 2.1875 -6.28125 C 1.945312 -6.351562 1.695312 -6.363281 1.4375 -6.3125 C 1.1875 -6.269531 0.921875 -6.191406 0.640625 -6.078125 C 0.367188 -5.960938 0.09375 -5.835938 -0.1875 -5.703125 C -0.507812 -5.566406 -0.832031 -5.429688 -1.15625 -5.296875 C -1.488281 -5.160156 -1.816406 -5.078125 -2.140625 -5.046875 C -2.472656 -5.023438 -2.796875 -5.078125 -3.109375 -5.203125 C -3.429688 -5.328125 -3.742188 -5.566406 -4.046875 -5.921875 C -4.335938 -6.265625 -4.523438 -6.601562 -4.609375 -6.9375 C -4.691406 -7.269531 -4.6875 -7.59375 -4.59375 -7.90625 C -4.507812 -8.226562 -4.351562 -8.535156 -4.125 -8.828125 C -3.90625 -9.128906 -3.644531 -9.410156 -3.34375 -9.671875 C -2.957031 -10.003906 -2.554688 -10.296875 -2.140625 -10.546875 C -1.722656 -10.804688 -1.335938 -11 -0.984375 -11.125 L -0.5625 -10.390625 C -0.707031 -10.335938 -0.867188 -10.265625 -1.046875 -10.171875 C -1.222656 -10.085938 -1.410156 -9.988281 -1.609375 -9.875 C -1.804688 -9.757812 -2 -9.628906 -2.1875 -9.484375 C -2.382812 -9.335938 -2.578125 -9.1875 -2.765625 -9.03125 C -2.992188 -8.84375 -3.1875 -8.644531 -3.34375 -8.4375 C -3.5 -8.238281 -3.609375 -8.035156 -3.671875 -7.828125 C -3.734375 -7.617188 -3.742188 -7.40625 -3.703125 -7.1875 C -3.660156 -6.976562 -3.546875 -6.757812 -3.359375 -6.53125 C -3.171875 -6.3125 -2.972656 -6.160156 -2.765625 -6.078125 C -2.554688 -6.003906 -2.332031 -5.976562 -2.09375 -6 C -1.851562 -6.03125 -1.609375 -6.097656 -1.359375 -6.203125 C -1.109375 -6.304688 -0.851562 -6.414062 -0.59375 -6.53125 C -0.269531 -6.707031 0.0664062 -6.867188 0.421875 -7.015625 C 0.773438 -7.160156 1.125 -7.253906 1.46875 -7.296875 C 1.820312 -7.347656 2.171875 -7.3125 2.515625 -7.1875 C 2.867188 -7.0625 3.21875 -6.804688 3.5625 -6.421875 C 3.875 -6.046875 4.078125 -5.675781 4.171875 -5.3125 C 4.265625 -4.945312 4.265625 -4.59375 4.171875 -4.25 C 4.085938 -3.90625 3.929688 -3.570312 3.703125 -3.25 C 3.484375 -2.9375 3.222656 -2.644531 2.921875 -2.375 C 2.472656 -2 1.984375 -1.675781 1.453125 -1.40625 C 0.921875 -1.144531 0.421875 -0.953125 -0.046875 -0.828125 Z M -0.46875 -1.578125 "/></g></g></g><g fill="#000000" fill-opacity="1"><g transform="translate(135.803883, 121.578235)"><g><path d="M 0.515625 -10.765625 L -1.671875 -9.265625 L 3.1875 -2.171875 L 2.421875 -1.65625 L -2.4375 -8.75 L -4.625 -7.25 L -5.078125 -7.9375 L 0.0625 -11.453125 Z M 0.515625 -10.765625 "/></g></g></g><g fill="#000000" fill-opacity="1"><g transform="translate(143.447341, 116.408935)"><g><path d="M 4.515625 -2.21875 C 4.390625 -2.15625 4.253906 -2.125 4.109375 -2.125 C 3.972656 -2.132812 3.851562 -2.195312 3.75 -2.3125 L -2.171875 -8.234375 L 1.625 -0.828125 L 0.8125 -0.421875 L -3.140625 -8.140625 C -3.273438 -8.390625 -3.296875 -8.613281 -3.203125 -8.8125 C -3.109375 -9.019531 -2.96875 -9.171875 -2.78125 -9.265625 C -2.601562 -9.359375 -2.421875 -9.390625 -2.234375 -9.359375 C -2.046875 -9.335938 -1.867188 -9.25 -1.703125 -9.09375 L 3.953125 -3.296875 L 2.515625 -11.265625 C 2.472656 -11.484375 2.5 -11.675781 2.59375 -11.84375 C 2.695312 -12.019531 2.835938 -12.15625 3.015625 -12.25 C 3.191406 -12.34375 3.390625 -12.363281 3.609375 -12.3125 C 3.835938 -12.269531 4.019531 -12.125 4.15625 -11.875 L 8.109375 -4.15625 L 7.28125 -3.734375 L 3.484375 -11.140625 L 4.84375 -2.875 C 4.875 -2.726562 4.851562 -2.59375 4.78125 -2.46875 C 4.707031 -2.351562 4.617188 -2.269531 4.515625 -2.21875 Z M 4.515625 -2.21875 "/></g></g></g><g fill="#000000" fill-opacity="1"><g transform="translate(154.588541, 110.933702)"><g><path d="M 7.03125 -2.484375 L 6.171875 -2.1875 L 5.015625 -5.46875 L 0.5625 -3.890625 L 1.71875 -0.609375 L 0.875 -0.3125 L -1.234375 -6.28125 C -1.410156 -6.78125 -1.472656 -7.25 -1.421875 -7.6875 C -1.378906 -8.125 -1.257812 -8.515625 -1.0625 -8.859375 C -0.875 -9.210938 -0.613281 -9.515625 -0.28125 -9.765625 C 0.0390625 -10.023438 0.394531 -10.222656 0.78125 -10.359375 C 1.15625 -10.492188 1.550781 -10.566406 1.96875 -10.578125 C 2.394531 -10.585938 2.796875 -10.515625 3.171875 -10.359375 C 3.546875 -10.210938 3.882812 -9.984375 4.1875 -9.671875 C 4.5 -9.359375 4.742188 -8.953125 4.921875 -8.453125 Z M 4.0625 -8.15625 C 3.925781 -8.53125 3.742188 -8.832031 3.515625 -9.0625 C 3.296875 -9.289062 3.046875 -9.457031 2.765625 -9.5625 C 2.492188 -9.675781 2.207031 -9.734375 1.90625 -9.734375 C 1.613281 -9.734375 1.332031 -9.679688 1.0625 -9.578125 C 0.769531 -9.484375 0.507812 -9.34375 0.28125 -9.15625 C 0.0507812 -8.96875 -0.132812 -8.742188 -0.28125 -8.484375 C -0.425781 -8.234375 -0.515625 -7.945312 -0.546875 -7.625 C -0.578125 -7.300781 -0.523438 -6.953125 -0.390625 -6.578125 L 0.28125 -4.65625 L 4.734375 -6.234375 Z M 4.0625 -8.15625 "/></g></g></g><g fill="#000000" fill-opacity="1"><g transform="translate(164.848985, 107.512067)"><g><path d="M 1.5625 -0.359375 C 1.363281 -0.316406 1.1875 -0.34375 1.03125 -0.4375 C 0.882812 -0.53125 0.789062 -0.679688 0.75 -0.890625 L -1.203125 -9.390625 L -0.328125 -9.59375 L 1.59375 -1.21875 L 5.875 -2.203125 L 6.0625 -1.390625 Z M 1.5625 -0.359375 "/></g></g></g><g fill="#000000" fill-opacity="1"><g transform="translate(173.63769, 105.668745)"><g/></g></g><g fill="#000000" fill-opacity="1"><g transform="translate(180.275919, 104.828764)"><g><path d="M 0.921875 -0.03125 L 0.5625 -8.734375 C 0.550781 -8.941406 0.601562 -9.113281 0.71875 -9.25 C 0.84375 -9.382812 1.007812 -9.457031 1.21875 -9.46875 L 6.03125 -9.671875 L 6.0625 -8.859375 L 1.46875 -8.671875 L 1.625 -4.953125 L 5.6875 -5.125 L 5.71875 -4.296875 L 1.65625 -4.125 L 1.828125 -0.078125 Z M 0.921875 -0.03125 "/></g></g></g><g fill="#000000" fill-opacity="1"><g transform="translate(189.461183, 104.530364)"><g><path d="M 2.546875 -9.25 L 2.0625 -2.96875 C 2.03125 -2.582031 2.078125 -2.234375 2.203125 -1.921875 C 2.328125 -1.617188 2.5 -1.351562 2.71875 -1.125 C 2.9375 -0.90625 3.191406 -0.734375 3.484375 -0.609375 C 3.785156 -0.492188 4.097656 -0.425781 4.421875 -0.40625 C 4.742188 -0.375 5.054688 -0.394531 5.359375 -0.46875 C 5.671875 -0.550781 5.953125 -0.679688 6.203125 -0.859375 C 6.460938 -1.046875 6.675781 -1.28125 6.84375 -1.5625 C 7.019531 -1.851562 7.125 -2.191406 7.15625 -2.578125 L 7.640625 -8.859375 L 8.546875 -8.796875 L 8.0625 -2.515625 C 8.019531 -1.984375 7.882812 -1.519531 7.65625 -1.125 C 7.425781 -0.738281 7.140625 -0.421875 6.796875 -0.171875 C 6.453125 0.0664062 6.066406 0.234375 5.640625 0.328125 C 5.222656 0.429688 4.796875 0.460938 4.359375 0.421875 C 3.929688 0.390625 3.515625 0.289062 3.109375 0.125 C 2.703125 -0.03125 2.34375 -0.253906 2.03125 -0.546875 C 1.726562 -0.847656 1.492188 -1.203125 1.328125 -1.609375 C 1.171875 -2.023438 1.113281 -2.5 1.15625 -3.03125 L 1.640625 -9.3125 Z M 3.515625 -11.46875 C 3.535156 -11.632812 3.601562 -11.769531 3.71875 -11.875 C 3.832031 -11.976562 3.96875 -12.023438 4.125 -12.015625 C 4.289062 -12.003906 4.425781 -11.9375 4.53125 -11.8125 C 4.644531 -11.6875 4.691406 -11.539062 4.671875 -11.375 C 4.660156 -11.207031 4.59375 -11.070312 4.46875 -10.96875 C 4.34375 -10.863281 4.195312 -10.816406 4.03125 -10.828125 C 3.875 -10.835938 3.742188 -10.90625 3.640625 -11.03125 C 3.546875 -11.15625 3.503906 -11.300781 3.515625 -11.46875 Z M 5.84375 -11.296875 C 5.863281 -11.460938 5.929688 -11.597656 6.046875 -11.703125 C 6.171875 -11.804688 6.316406 -11.851562 6.484375 -11.84375 C 6.648438 -11.832031 6.785156 -11.765625 6.890625 -11.640625 C 7.003906 -11.515625 7.050781 -11.367188 7.03125 -11.203125 C 7.019531 -11.035156 6.953125 -10.898438 6.828125 -10.796875 C 6.703125 -10.691406 6.554688 -10.644531 6.390625 -10.65625 C 6.222656 -10.664062 6.085938 -10.734375 5.984375 -10.859375 C 5.878906 -10.984375 5.832031 -11.128906 5.84375 -11.296875 Z M 5.84375 -11.296875 "/></g></g></g><g fill="#000000" fill-opacity="1"><g transform="translate(200.597205, 105.562834)"><g><path d="M 2.65625 -3.8125 L 1.796875 0.359375 L 0.90625 0.1875 L 2.640625 -8.34375 C 2.691406 -8.550781 2.789062 -8.707031 2.9375 -8.8125 C 3.082031 -8.914062 3.257812 -8.945312 3.46875 -8.90625 L 6.25 -8.34375 C 6.664062 -8.257812 7.019531 -8.109375 7.3125 -7.890625 C 7.601562 -7.671875 7.828125 -7.421875 7.984375 -7.140625 C 8.148438 -6.859375 8.257812 -6.554688 8.3125 -6.234375 C 8.363281 -5.921875 8.359375 -5.609375 8.296875 -5.296875 C 8.203125 -4.859375 8.015625 -4.457031 7.734375 -4.09375 C 7.453125 -3.738281 7.082031 -3.488281 6.625 -3.34375 C 7.050781 -3 7.335938 -2.582031 7.484375 -2.09375 C 7.628906 -1.601562 7.628906 -1 7.484375 -0.28125 L 7.125 1.453125 L 6.21875 1.265625 L 6.5625 -0.4375 C 6.738281 -1.269531 6.648438 -1.929688 6.296875 -2.421875 C 5.953125 -2.921875 5.4375 -3.238281 4.75 -3.375 Z M 5.375 -4.09375 C 5.65625 -4.039062 5.90625 -4.039062 6.125 -4.09375 C 6.351562 -4.15625 6.550781 -4.25 6.71875 -4.375 C 6.894531 -4.507812 7.039062 -4.671875 7.15625 -4.859375 C 7.269531 -5.054688 7.351562 -5.257812 7.40625 -5.46875 C 7.445312 -5.6875 7.453125 -5.90625 7.421875 -6.125 C 7.390625 -6.34375 7.316406 -6.546875 7.203125 -6.734375 C 7.097656 -6.929688 6.953125 -7.097656 6.765625 -7.234375 C 6.585938 -7.378906 6.359375 -7.476562 6.078125 -7.53125 L 3.515625 -8.0625 L 2.8125 -4.625 Z M 5.375 -4.09375 "/></g></g></g><g fill="#000000" fill-opacity="1"><g transform="translate(210.737936, 107.853605)"><g/></g></g><g fill="#000000" fill-opacity="1"><g transform="translate(217.147405, 109.960869)"><g><path d="M 1.703125 0.65625 L 0.859375 0.328125 L 4.265625 -8.453125 L 5.109375 -8.125 Z M 1.703125 0.65625 "/></g></g></g><g fill="#000000" fill-opacity="1"><g transform="translate(222.046213, 111.80182)"><g><path d="M 4.421875 2.359375 C 4.296875 2.296875 4.195312 2.207031 4.125 2.09375 C 4.0625 1.976562 4.039062 1.84375 4.0625 1.6875 L 5.421875 -6.578125 L 1.625 0.828125 L 0.828125 0.421875 L 4.78125 -7.296875 C 4.90625 -7.546875 5.078125 -7.691406 5.296875 -7.734375 C 5.515625 -7.785156 5.71875 -7.765625 5.90625 -7.671875 C 6.082031 -7.578125 6.210938 -7.441406 6.296875 -7.265625 C 6.390625 -7.097656 6.421875 -6.910156 6.390625 -6.703125 L 4.984375 1.28125 L 10.609375 -4.546875 C 10.765625 -4.691406 10.941406 -4.773438 11.140625 -4.796875 C 11.335938 -4.816406 11.523438 -4.785156 11.703125 -4.703125 C 11.890625 -4.609375 12.023438 -4.457031 12.109375 -4.25 C 12.203125 -4.039062 12.1875 -3.8125 12.0625 -3.5625 L 8.109375 4.15625 L 7.28125 3.734375 L 11.078125 -3.671875 L 5.15625 2.25 C 5.0625 2.363281 4.941406 2.425781 4.796875 2.4375 C 4.648438 2.445312 4.523438 2.421875 4.421875 2.359375 Z M 4.421875 2.359375 "/></g></g></g><g fill="#000000" fill-opacity="1"><g transform="translate(232.998874, 117.605082)"><g><path d="M 4.046875 2.984375 C 3.929688 2.898438 3.84375 2.789062 3.78125 2.65625 C 3.726562 2.53125 3.726562 2.398438 3.78125 2.265625 L 6.296875 -5.734375 L 1.484375 1.0625 L 0.75 0.53125 L 5.765625 -6.546875 C 5.929688 -6.773438 6.125 -6.894531 6.34375 -6.90625 C 6.5625 -6.925781 6.753906 -6.875 6.921875 -6.75 C 7.085938 -6.632812 7.203125 -6.484375 7.265625 -6.296875 C 7.335938 -6.109375 7.347656 -5.910156 7.296875 -5.703125 L 4.75 1.984375 L 11.15625 -2.96875 C 11.332031 -3.09375 11.515625 -3.15625 11.703125 -3.15625 C 11.898438 -3.15625 12.078125 -3.097656 12.234375 -2.984375 C 12.410156 -2.859375 12.53125 -2.6875 12.59375 -2.46875 C 12.65625 -2.257812 12.601562 -2.039062 12.4375 -1.8125 L 7.421875 5.265625 L 6.671875 4.734375 L 11.484375 -2.0625 L 4.796875 2.96875 C 4.671875 3.0625 4.539062 3.101562 4.40625 3.09375 C 4.269531 3.09375 4.148438 3.054688 4.046875 2.984375 Z M 4.046875 2.984375 "/></g></g></g><g fill="#000000" fill-opacity="1"><g transform="translate(242.991582, 124.993344)"><g><path d="M 1.1875 1.09375 C 1.03125 0.945312 0.945312 0.785156 0.9375 0.609375 C 0.9375 0.429688 1.007812 0.265625 1.15625 0.109375 L 6.578125 -5.765625 C 6.722656 -5.929688 6.882812 -6.019531 7.0625 -6.03125 C 7.25 -6.039062 7.421875 -5.972656 7.578125 -5.828125 L 11.328125 -2.359375 L 10.765625 -1.75 L 7.171875 -5.078125 L 4.8125 -2.515625 L 8.125 0.546875 L 7.578125 1.140625 L 4.265625 -1.921875 L 1.90625 0.625 L 5.65625 4.09375 L 5.09375 4.703125 Z M 1.1875 1.09375 "/></g></g></g><g fill="#000000" fill-opacity="1"><g transform="translate(250.037107, 131.664235)"><g><path d="M 4.421875 -1.390625 L 1.1875 1.390625 L 0.59375 0.703125 L 7.203125 -4.96875 C 7.367188 -5.101562 7.539062 -5.164062 7.71875 -5.15625 C 7.90625 -5.15625 8.066406 -5.078125 8.203125 -4.921875 L 10.0625 -2.765625 C 10.332031 -2.441406 10.515625 -2.101562 10.609375 -1.75 C 10.710938 -1.40625 10.742188 -1.066406 10.703125 -0.734375 C 10.660156 -0.410156 10.554688 -0.109375 10.390625 0.171875 C 10.222656 0.453125 10.019531 0.695312 9.78125 0.90625 C 9.445312 1.195312 9.0625 1.398438 8.625 1.515625 C 8.1875 1.628906 7.742188 1.597656 7.296875 1.421875 C 7.410156 1.953125 7.375 2.453125 7.1875 2.921875 C 7.007812 3.398438 6.640625 3.878906 6.078125 4.359375 L 4.734375 5.515625 L 4.125 4.8125 L 5.4375 3.6875 C 6.09375 3.125 6.4375 2.539062 6.46875 1.9375 C 6.5 1.332031 6.28125 0.765625 5.8125 0.234375 Z M 6.765625 0.0625 C 6.941406 0.28125 7.132812 0.429688 7.34375 0.515625 C 7.5625 0.609375 7.78125 0.65625 8 0.65625 C 8.21875 0.664062 8.429688 0.628906 8.640625 0.546875 C 8.847656 0.472656 9.03125 0.363281 9.1875 0.21875 C 9.351562 0.0703125 9.492188 -0.09375 9.609375 -0.28125 C 9.722656 -0.476562 9.796875 -0.6875 9.828125 -0.90625 C 9.859375 -1.125 9.84375 -1.34375 9.78125 -1.5625 C 9.726562 -1.78125 9.613281 -2 9.4375 -2.21875 L 7.71875 -4.203125 L 5.046875 -1.921875 Z M 6.765625 0.0625 "/></g></g></g><g fill="#000000" fill-opacity="1"><g transform="translate(256.640317, 139.693996)"><g/></g></g><g fill="#000000" fill-opacity="1"><g transform="translate(209.178785, 209.999986)"><g><path d="M 99.859375 -54.90625 C 100.347656 -54.613281 100.65625 -54.226562 100.78125 -53.75 C 100.914062 -53.28125 100.835938 -52.804688 100.546875 -52.328125 C 100.117188 -51.640625 99.59375 -51.007812 98.96875 -50.4375 C 97.707031 -49.257812 96.3125 -48.195312 94.78125 -47.25 C 87.113281 -42.238281 78.851562 -38.429688 70 -35.828125 C 69.59375 -35.703125 69.191406 -35.570312 68.796875 -35.4375 C 68.191406 -35.238281 67.578125 -35.054688 66.953125 -34.890625 C 66.785156 -34.816406 66.628906 -34.832031 66.484375 -34.9375 C 66.335938 -35.039062 66.25 -35.191406 66.21875 -35.390625 C 66.21875 -35.484375 66.25 -35.59375 66.3125 -35.71875 C 66.382812 -35.84375 66.46875 -35.921875 66.5625 -35.953125 C 67.300781 -36.265625 68.078125 -36.550781 68.890625 -36.8125 C 77.765625 -39.757812 86.082031 -43.859375 93.84375 -49.109375 C 94.800781 -49.796875 95.722656 -50.507812 96.609375 -51.25 C 96.722656 -51.363281 96.851562 -51.460938 97 -51.546875 C 97.445312 -51.921875 97.769531 -52.394531 97.96875 -52.96875 C 98.082031 -53.3125 97.984375 -53.597656 97.671875 -53.828125 C 97.328125 -54.046875 96.9375 -54.175781 96.5 -54.21875 C 96.425781 -54.21875 96.34375 -54.234375 96.25 -54.265625 C 94.5625 -54.546875 92.863281 -54.6875 91.15625 -54.6875 C 89.457031 -54.6875 87.765625 -54.613281 86.078125 -54.46875 C 82.234375 -54.09375 78.40625 -53.578125 74.59375 -52.921875 C 70.789062 -52.265625 66.992188 -51.53125 63.203125 -50.71875 C 51.984375 -48.351562 40.941406 -45.347656 30.078125 -41.703125 C 26.210938 -40.410156 22.378906 -39.035156 18.578125 -37.578125 C 14.785156 -36.117188 11.039062 -34.519531 7.34375 -32.78125 C 6.34375 -32.28125 5.34375 -31.789062 4.34375 -31.3125 C 3.800781 -31.019531 3.242188 -30.734375 2.671875 -30.453125 C 2.585938 -30.421875 2.519531 -30.375 2.46875 -30.3125 C 2.082031 -30.113281 1.691406 -29.957031 1.296875 -29.84375 C 1.097656 -29.769531 0.890625 -29.738281 0.671875 -29.75 C 0.460938 -29.757812 0.296875 -29.847656 0.171875 -30.015625 C 0.0546875 -30.253906 0.0546875 -30.457031 0.171875 -30.625 C 0.296875 -30.789062 0.453125 -30.9375 0.640625 -31.0625 C 0.671875 -31.082031 0.71875 -31.109375 0.78125 -31.140625 C 1.71875 -31.679688 2.6875 -32.210938 3.6875 -32.734375 C 6.90625 -34.359375 10.179688 -35.859375 13.515625 -37.234375 C 16.847656 -38.609375 20.222656 -39.898438 23.640625 -41.109375 C 37.359375 -46.003906 51.351562 -49.882812 65.625 -52.75 C 69.0625 -53.445312 72.5 -54.082031 75.9375 -54.65625 C 79.375 -55.226562 82.835938 -55.65625 86.328125 -55.9375 C 87.328125 -55.988281 88.34375 -56.039062 89.375 -56.09375 C 89.832031 -56.132812 90.304688 -56.164062 90.796875 -56.1875 C 92.953125 -56.1875 95.101562 -56.03125 97.25 -55.71875 C 98.15625 -55.601562 99.023438 -55.332031 99.859375 -54.90625 Z M 46.765625 -14.90625 C 46.953125 -14.863281 47.132812 -14.789062 47.3125 -14.6875 C 47.488281 -14.59375 47.617188 -14.488281 47.703125 -14.375 C 47.785156 -14.257812 47.796875 -14.148438 47.734375 -14.046875 C 47.585938 -13.859375 47.421875 -13.75 47.234375 -13.71875 C 47.054688 -13.695312 46.882812 -13.6875 46.71875 -13.6875 C 46.675781 -13.6875 46.644531 -13.6875 46.625 -13.6875 C 43.5625 -13.6875 40.484375 -13.546875 37.390625 -13.265625 C 35.753906 -13.117188 34.101562 -13 32.4375 -12.90625 C 31.894531 -12.882812 31.523438 -12.597656 31.328125 -12.046875 C 31.160156 -11.617188 30.972656 -11.191406 30.765625 -10.765625 C 30.660156 -10.515625 30.5625 -10.257812 30.46875 -10 C 30.0625 -9.070312 29.675781 -8.164062 29.3125 -7.28125 C 26.164062 0.382812 22.882812 8 19.46875 15.5625 C 18.5 17.664062 17.46875 19.734375 16.375 21.765625 C 16.375 21.785156 16.359375 21.8125 16.328125 21.84375 C 15.992188 22.5 15.566406 23.128906 15.046875 23.734375 C 14.585938 24.273438 13.988281 24.460938 13.25 24.296875 C 13.039062 24.234375 12.863281 24.128906 12.71875 23.984375 C 12.570312 23.835938 12.5 23.65625 12.5 23.4375 C 12.539062 22.945312 12.632812 22.457031 12.78125 21.96875 C 12.882812 21.632812 12.992188 21.28125 13.109375 20.90625 C 13.679688 19.039062 14.285156 17.175781 14.921875 15.3125 C 17.785156 7.09375 21.117188 -0.925781 24.921875 -8.75 C 25.273438 -9.488281 25.691406 -10.21875 26.171875 -10.9375 C 26.285156 -11.101562 26.453125 -11.203125 26.671875 -11.234375 C 26.890625 -11.273438 27.09375 -11.257812 27.28125 -11.1875 C 27.632812 -11.082031 27.765625 -10.816406 27.671875 -10.390625 C 27.585938 -9.960938 27.410156 -9.46875 27.140625 -8.90625 C 26.867188 -8.34375 26.601562 -7.847656 26.34375 -7.421875 C 26.132812 -7.066406 25.992188 -6.804688 25.921875 -6.640625 C 21.984375 1.804688 19.789062 6.734375 19.34375 8.140625 C 19.164062 8.628906 19.078125 8.957031 19.078125 9.125 C 19.078125 9.289062 19.132812 9.359375 19.25 9.328125 C 19.375 9.304688 19.503906 9.226562 19.640625 9.09375 C 19.785156 8.96875 19.921875 8.832031 20.046875 8.6875 C 20.171875 8.550781 20.253906 8.457031 20.296875 8.40625 C 20.460938 7.96875 20.644531 7.523438 20.84375 7.078125 C 21.476562 5.597656 22.109375 4.128906 22.734375 2.671875 C 22.929688 2.242188 23.117188 1.816406 23.296875 1.390625 C 24.640625 -1.785156 25.96875 -4.960938 27.28125 -8.140625 C 27.351562 -8.265625 27.441406 -8.441406 27.546875 -8.671875 C 27.773438 -9.128906 28.019531 -9.660156 28.28125 -10.265625 C 28.539062 -10.878906 28.707031 -11.429688 28.78125 -11.921875 C 28.851562 -12.410156 28.726562 -12.671875 28.40625 -12.703125 C 27.75 -12.703125 27.085938 -12.703125 26.421875 -12.703125 C 25.992188 -12.703125 25.566406 -12.703125 25.140625 -12.703125 C 24.773438 -12.703125 24.390625 -12.703125 23.984375 -12.703125 C 22.722656 -12.703125 21.460938 -12.71875 20.203125 -12.75 C 19.859375 -12.78125 19.546875 -12.867188 19.265625 -13.015625 C 19.234375 -13.035156 19.207031 -13.082031 19.1875 -13.15625 C 19.164062 -13.226562 19.144531 -13.3125 19.125 -13.40625 C 19.125 -13.425781 19.125 -13.453125 19.125 -13.484375 C 19.125 -13.503906 19.140625 -13.53125 19.171875 -13.5625 C 19.203125 -13.59375 19.234375 -13.625 19.265625 -13.65625 C 19.429688 -13.769531 19.597656 -13.835938 19.765625 -13.859375 C 19.929688 -13.890625 20.109375 -13.90625 20.296875 -13.90625 C 20.347656 -13.90625 20.398438 -13.90625 20.453125 -13.90625 C 21.171875 -13.9375 21.882812 -13.960938 22.59375 -13.984375 C 24.457031 -14.097656 26.320312 -14.171875 28.1875 -14.203125 C 28.820312 -14.203125 29.316406 -14.335938 29.671875 -14.609375 C 30.035156 -14.878906 30.316406 -15.300781 30.515625 -15.875 C 31.429688 -18.257812 32.359375 -20.640625 33.296875 -23.015625 C 34.304688 -25.535156 35.296875 -28.0625 36.265625 -30.59375 C 37.015625 -32.53125 37.71875 -34.472656 38.375 -36.421875 C 38.738281 -37.453125 39.113281 -38.492188 39.5 -39.546875 C 39.5 -39.585938 39.507812 -39.625 39.53125 -39.65625 C 39.675781 -40.101562 39.863281 -40.519531 40.09375 -40.90625 C 40.238281 -41.09375 40.410156 -41.191406 40.609375 -41.203125 C 40.816406 -41.222656 41.03125 -41.207031 41.25 -41.15625 C 41.414062 -41.0625 41.550781 -40.945312 41.65625 -40.8125 C 41.757812 -40.6875 41.800781 -40.539062 41.78125 -40.375 C 41.6875 -39.71875 41.554688 -39.070312 41.390625 -38.4375 C 40.441406 -35.3125 39.367188 -32.242188 38.171875 -29.234375 C 38.097656 -29.160156 38.050781 -29.078125 38.03125 -28.984375 C 36.945312 -26.148438 35.832031 -23.332031 34.6875 -20.53125 C 34.164062 -19.238281 33.644531 -17.945312 33.125 -16.65625 C 33.125 -16.632812 33.125 -16.625 33.125 -16.625 C 32.976562 -16.25 32.835938 -15.859375 32.703125 -15.453125 C 32.554688 -15.085938 32.546875 -14.820312 32.671875 -14.65625 C 32.804688 -14.5 33.085938 -14.421875 33.515625 -14.421875 C 34.085938 -14.421875 34.660156 -14.453125 35.234375 -14.515625 C 35.492188 -14.515625 35.753906 -14.515625 36.015625 -14.515625 C 36.066406 -14.515625 36.109375 -14.523438 36.140625 -14.546875 C 39.429688 -14.671875 42.710938 -14.789062 45.984375 -14.90625 C 46.242188 -14.925781 46.503906 -14.925781 46.765625 -14.90625 Z M 46.765625 -14.90625 "/></g></g></g><g fill="#000000" fill-opacity="1"><g transform="translate(257.650611, 209.999986)"><g><path d="M 11.125 -7.5 C 10.375 -6.757812 9.5 -6.125 8.5 -5.59375 C 7.5 -5.070312 6.660156 -4.726562 5.984375 -4.5625 C 5.304688 -4.394531 4.609375 -4.300781 3.890625 -4.28125 C 2.742188 -4.226562 1.6875 -4.382812 0.71875 -4.75 C -0.851562 -5.382812 -1.398438 -6.601562 -0.921875 -8.40625 C -0.460938 -9.945312 0.460938 -11.15625 1.859375 -12.03125 C 3.253906 -12.90625 4.691406 -13.328125 6.171875 -13.296875 C 6.171875 -13.296875 6.1875 -13.296875 6.21875 -13.296875 C 6.59375 -13.328125 6.945312 -13.300781 7.28125 -13.21875 C 7.851562 -13.007812 8.21875 -12.671875 8.375 -12.203125 C 8.53125 -11.734375 8.425781 -11.210938 8.0625 -10.640625 C 7.226562 -9.378906 6.097656 -8.675781 4.671875 -8.53125 C 3.722656 -8.445312 2.804688 -8.492188 1.921875 -8.671875 C 1.742188 -8.703125 1.585938 -8.65625 1.453125 -8.53125 C 1.328125 -8.414062 1.253906 -8.273438 1.234375 -8.109375 C 0.972656 -6.984375 1.316406 -6.265625 2.265625 -5.953125 C 3.441406 -5.554688 4.660156 -5.554688 5.921875 -5.953125 C 7.378906 -6.410156 8.765625 -7.269531 10.078125 -8.53125 C 11.390625 -9.800781 12.144531 -10.390625 12.34375 -10.296875 C 12.550781 -10.210938 12.617188 -9.972656 12.546875 -9.578125 C 12.359375 -8.929688 11.882812 -8.238281 11.125 -7.5 Z M 2.8125 -10.640625 C 2.738281 -10.554688 2.679688 -10.457031 2.640625 -10.34375 C 2.609375 -10.226562 2.65625 -10.128906 2.78125 -10.046875 C 3.226562 -9.785156 3.71875 -9.6875 4.25 -9.75 C 4.789062 -9.820312 5.242188 -10.023438 5.609375 -10.359375 C 5.984375 -10.691406 6.144531 -11.097656 6.09375 -11.578125 C 6.050781 -11.753906 5.957031 -11.863281 5.8125 -11.90625 C 5.675781 -11.945312 5.535156 -11.957031 5.390625 -11.9375 C 4.429688 -11.769531 3.570312 -11.335938 2.8125 -10.640625 Z M 2.8125 -10.640625 "/></g></g></g><g fill="#000000" fill-opacity="1"><g transform="translate(269.016687, 209.999986)"><g><path d="M 9.453125 -9.3125 C 9.878906 -9.75 10.234375 -9.992188 10.515625 -10.046875 C 10.804688 -10.097656 10.992188 -10.050781 11.078125 -9.90625 C 11.171875 -9.757812 11.117188 -9.5625 10.921875 -9.3125 C 9.773438 -7.9375 8.488281 -6.742188 7.0625 -5.734375 C 5.644531 -4.734375 4.1875 -4.15625 2.6875 -4 C 1.1875 -3.84375 0.273438 -4.664062 -0.046875 -6.46875 C -0.273438 -8.25 0.804688 -11.878906 3.203125 -17.359375 C 5.597656 -22.847656 7.492188 -27.34375 8.890625 -30.84375 C 9.003906 -31.15625 9.179688 -31.425781 9.421875 -31.65625 C 9.734375 -31.96875 10.101562 -32.039062 10.53125 -31.875 C 10.675781 -31.8125 10.816406 -31.707031 10.953125 -31.5625 C 11.097656 -31.414062 11.144531 -31.160156 11.09375 -30.796875 C 4.9375 -16.191406 1.953125 -8.25 2.140625 -6.96875 C 2.335938 -5.695312 3.160156 -5.382812 4.609375 -6.03125 C 6.066406 -6.675781 7.1875 -7.332031 7.96875 -8 C 8.757812 -8.664062 9.253906 -9.101562 9.453125 -9.3125 Z M 9.453125 -9.3125 "/></g></g></g><g fill="#000000" fill-opacity="1"><g transform="translate(278.761834, 209.999986)"><g><path d="M 7.765625 -8.234375 C 7.066406 -7.410156 6.242188 -6.648438 5.296875 -5.953125 C 4.347656 -5.265625 3.273438 -4.800781 2.078125 -4.5625 C 0.878906 -4.320312 -0.0507812 -4.410156 -0.71875 -4.828125 C -1.382812 -5.242188 -1.515625 -6.164062 -1.109375 -7.59375 C -0.585938 -9.082031 0.125 -10.5 1.03125 -11.84375 C 1.238281 -12.125 1.539062 -12.320312 1.9375 -12.4375 C 2.21875 -12.507812 2.46875 -12.460938 2.6875 -12.296875 C 2.90625 -12.128906 2.988281 -11.925781 2.9375 -11.6875 C 2.738281 -11.21875 2.519531 -10.75 2.28125 -10.28125 C 2.050781 -9.8125 1.894531 -9.503906 1.8125 -9.359375 C 1.363281 -8.523438 1.046875 -7.648438 0.859375 -6.734375 C 0.859375 -6.210938 1.554688 -6.179688 2.953125 -6.640625 C 4.347656 -7.097656 5.703125 -7.9375 7.015625 -9.15625 C 8.328125 -10.375 8.953125 -10.726562 8.890625 -10.21875 C 8.835938 -9.71875 8.460938 -9.054688 7.765625 -8.234375 Z M 4.359375 -14.765625 C 4.296875 -14.710938 4.160156 -14.648438 3.953125 -14.578125 C 3.753906 -14.503906 3.539062 -14.453125 3.3125 -14.421875 C 3.082031 -14.390625 2.898438 -14.425781 2.765625 -14.53125 C 2.640625 -14.632812 2.632812 -14.84375 2.75 -15.15625 C 2.957031 -15.707031 3.175781 -16.1875 3.40625 -16.59375 C 3.632812 -17 3.929688 -17.453125 4.296875 -17.953125 C 4.535156 -18.171875 4.789062 -18.289062 5.0625 -18.3125 C 5.332031 -18.332031 5.554688 -18.257812 5.734375 -18.09375 C 5.921875 -17.9375 5.976562 -17.710938 5.90625 -17.421875 C 5.613281 -16.390625 5.097656 -15.503906 4.359375 -14.765625 Z M 4.359375 -14.765625 "/></g></g></g><g fill="#000000" fill-opacity="1"><g transform="translate(286.378278, 209.999986)"><g><path d="M 2.625 -5.875 C 2.476562 -6.019531 2.320312 -6.144531 2.15625 -6.25 C 2.070312 -6.3125 2 -6.367188 1.9375 -6.421875 C 1.476562 -6.253906 1.09375 -6.003906 0.78125 -5.671875 C 0.613281 -5.460938 0.410156 -5.285156 0.171875 -5.140625 C -0.160156 -4.878906 -0.53125 -4.769531 -0.9375 -4.8125 C -1.175781 -4.832031 -1.363281 -4.941406 -1.5 -5.140625 C -1.53125 -5.160156 -1.546875 -5.222656 -1.546875 -5.328125 C -1.546875 -5.429688 -1.53125 -5.507812 -1.5 -5.5625 C -1.4375 -5.632812 -1.378906 -5.695312 -1.328125 -5.75 C -0.992188 -6.195312 -0.625 -6.613281 -0.21875 -7 C 0.21875 -7.394531 0.492188 -7.804688 0.609375 -8.234375 C 0.722656 -8.671875 0.640625 -9.175781 0.359375 -9.75 C 0.00390625 -10.570312 -0.269531 -11.441406 -0.46875 -12.359375 C -0.519531 -12.617188 -0.578125 -12.894531 -0.640625 -13.1875 C -0.765625 -13.570312 -0.648438 -13.910156 -0.296875 -14.203125 C -0.0351562 -14.378906 0.242188 -14.429688 0.546875 -14.359375 C 0.847656 -14.296875 1.054688 -14.132812 1.171875 -13.875 C 1.335938 -13.351562 1.507812 -12.835938 1.6875 -12.328125 C 1.851562 -11.859375 2.007812 -11.382812 2.15625 -10.90625 C 2.382812 -10.332031 2.753906 -10.269531 3.265625 -10.71875 C 3.785156 -11.21875 4.316406 -11.722656 4.859375 -12.234375 C 5.429688 -12.773438 6.003906 -13.320312 6.578125 -13.875 C 7.035156 -14.300781 7.523438 -14.679688 8.046875 -15.015625 C 8.359375 -15.222656 8.660156 -15.210938 8.953125 -14.984375 C 9.085938 -14.816406 9.140625 -14.664062 9.109375 -14.53125 C 9.078125 -14.40625 9.007812 -14.28125 8.90625 -14.15625 C 7.695312 -12.84375 6.503906 -11.539062 5.328125 -10.25 C 5.046875 -9.96875 4.757812 -9.679688 4.46875 -9.390625 C 3.925781 -8.941406 3.625 -8.539062 3.5625 -8.1875 C 3.507812 -7.84375 3.828125 -7.328125 4.515625 -6.640625 C 4.890625 -6.304688 5.476562 -6.273438 6.28125 -6.546875 C 7.082031 -6.816406 7.941406 -7.226562 8.859375 -7.78125 C 9.773438 -8.332031 10.601562 -8.867188 11.34375 -9.390625 C 11.863281 -9.773438 12.28125 -10.050781 12.59375 -10.21875 C 13.363281 -10.625 13.8125 -10.664062 13.9375 -10.34375 C 14.070312 -10.019531 13.867188 -9.632812 13.328125 -9.1875 C 13.035156 -8.988281 12.757812 -8.785156 12.5 -8.578125 C 11.332031 -7.742188 10.160156 -6.914062 8.984375 -6.09375 C 8.390625 -5.6875 7.742188 -5.351562 7.046875 -5.09375 C 6.242188 -4.78125 5.46875 -4.671875 4.71875 -4.765625 C 3.976562 -4.867188 3.28125 -5.238281 2.625 -5.875 Z M 2.625 -5.875 "/></g></g></g><g fill="#000000" fill-opacity="1"><g transform="translate(171.562436, 205.067423)"><g><path d="M 32.3125 -12.40625 C 32.425781 -12.132812 32.492188 -11.851562 32.515625 -11.5625 C 32.578125 -10.351562 32.460938 -9.007812 32.171875 -7.53125 C 31.878906 -6.0625 31.382812 -4.609375 30.6875 -3.171875 C 29.988281 -1.734375 29.066406 -0.507812 27.921875 0.5 C 26.773438 1.519531 25.398438 2.148438 23.796875 2.390625 C 21.503906 2.722656 19.546875 2.34375 17.921875 1.25 C 16.929688 0.5625 16.140625 -0.296875 15.546875 -1.328125 C 15.316406 -1.679688 15.09375 -2.050781 14.875 -2.4375 C 14.757812 -2.613281 14.628906 -2.800781 14.484375 -3 C 13.929688 -2.738281 13.429688 -2.394531 12.984375 -1.96875 C 12.828125 -1.832031 12.671875 -1.707031 12.515625 -1.59375 C 12.484375 -1.582031 12.453125 -1.550781 12.421875 -1.5 C 11.179688 -0.488281 9.882812 0.4375 8.53125 1.28125 C 7.070312 2.132812 5.613281 2.515625 4.15625 2.421875 C 2.90625 2.328125 2.019531 1.878906 1.5 1.078125 C 0.988281 0.273438 0.9375 -0.757812 1.34375 -2.03125 C 1.582031 -2.8125 1.929688 -3.550781 2.390625 -4.25 C 2.847656 -4.945312 3.359375 -5.617188 3.921875 -6.265625 C 4.753906 -7.222656 5.632812 -8.132812 6.5625 -9 C 7.488281 -9.863281 8.441406 -10.707031 9.421875 -11.53125 C 10.273438 -12.238281 11.148438 -12.929688 12.046875 -13.609375 C 12.703125 -14.085938 13.046875 -14.671875 13.078125 -15.359375 C 13.304688 -17.597656 13.789062 -19.851562 14.53125 -22.125 C 15.019531 -23.695312 15.75 -25.21875 16.71875 -26.6875 C 18.363281 -29.175781 20.507812 -30.351562 23.15625 -30.21875 C 24.476562 -30.195312 25.59375 -29.828125 26.5 -29.109375 C 28.144531 -27.722656 28.257812 -25.851562 26.84375 -23.5 C 26.1875 -22.539062 25.414062 -21.644531 24.53125 -20.8125 C 23.6875 -20.007812 22.800781 -19.25 21.875 -18.53125 C 20.957031 -17.820312 20.03125 -17.128906 19.09375 -16.453125 C 18.976562 -16.367188 18.867188 -16.296875 18.765625 -16.234375 C 17.910156 -15.597656 17.070312 -14.96875 16.25 -14.34375 C 15.882812 -14.125 15.6875 -13.847656 15.65625 -13.515625 C 15.632812 -13.210938 15.625 -12.921875 15.625 -12.640625 C 15.613281 -11.742188 15.632812 -10.863281 15.6875 -10 C 15.738281 -9.132812 15.898438 -8.3125 16.171875 -7.53125 C 16.203125 -7.507812 16.234375 -7.488281 16.265625 -7.46875 C 16.285156 -7.445312 16.296875 -7.4375 16.296875 -7.4375 C 16.816406 -7.707031 17.273438 -8.03125 17.671875 -8.40625 C 17.816406 -8.519531 17.957031 -8.644531 18.09375 -8.78125 C 20.945312 -11.082031 23.875 -13.273438 26.875 -15.359375 C 27.300781 -15.640625 27.738281 -15.921875 28.1875 -16.203125 C 28.632812 -16.484375 29.09375 -16.59375 29.5625 -16.53125 C 29.832031 -16.507812 30.007812 -16.398438 30.09375 -16.203125 C 30.144531 -16.035156 30.125 -15.898438 30.03125 -15.796875 C 29.9375 -15.703125 29.832031 -15.613281 29.71875 -15.53125 C 29.457031 -15.300781 29.191406 -15.078125 28.921875 -14.859375 C 28.648438 -14.671875 28.394531 -14.46875 28.15625 -14.25 C 27.59375 -13.820312 27.039062 -13.382812 26.5 -12.9375 C 23.550781 -10.5625 20.609375 -8.179688 17.671875 -5.796875 C 17.222656 -5.441406 16.96875 -5.160156 16.90625 -4.953125 C 16.84375 -4.753906 16.890625 -4.476562 17.046875 -4.125 C 17.535156 -2.925781 18.171875 -1.863281 18.953125 -0.9375 C 19.585938 -0.1875 20.375 0.375 21.3125 0.75 C 22.613281 1.195312 23.785156 1.195312 24.828125 0.75 C 25.878906 0.300781 26.785156 -0.429688 27.546875 -1.453125 C 28.304688 -2.484375 28.914062 -3.640625 29.375 -4.921875 C 29.832031 -6.210938 30.113281 -7.46875 30.21875 -8.6875 C 30.332031 -9.90625 30.257812 -10.929688 30 -11.765625 C 30 -11.867188 29.988281 -11.96875 29.96875 -12.0625 C 29.914062 -12.195312 29.890625 -12.332031 29.890625 -12.46875 C 29.890625 -12.625 29.941406 -12.753906 30.046875 -12.859375 C 30.148438 -12.960938 30.273438 -13.03125 30.421875 -13.0625 C 31.390625 -13.34375 32.019531 -13.125 32.3125 -12.40625 Z M 18.5625 -25.28125 C 18.132812 -24.519531 17.78125 -23.753906 17.5 -22.984375 C 17.21875 -22.210938 16.96875 -21.4375 16.75 -20.65625 C 16.675781 -20.363281 16.609375 -20.0625 16.546875 -19.75 C 16.359375 -18.96875 16.203125 -18.175781 16.078125 -17.375 C 16.023438 -17.1875 16.066406 -17.0625 16.203125 -17 C 16.335938 -16.945312 16.492188 -16.976562 16.671875 -17.09375 C 17.742188 -17.832031 18.789062 -18.597656 19.8125 -19.390625 C 20.84375 -20.191406 21.832031 -21.054688 22.78125 -21.984375 C 23.476562 -22.691406 24.050781 -23.445312 24.5 -24.25 C 25.5 -26.351562 25.125 -27.796875 23.375 -28.578125 C 22.53125 -28.929688 21.648438 -28.738281 20.734375 -28 C 20.265625 -27.625 19.851562 -27.207031 19.5 -26.75 C 19.15625 -26.289062 18.84375 -25.800781 18.5625 -25.28125 Z M 13.140625 -4.6875 C 13.585938 -5.070312 13.738281 -5.488281 13.59375 -5.9375 C 13.1875 -7.519531 12.953125 -9.179688 12.890625 -10.921875 C 12.890625 -11.015625 12.863281 -11.125 12.8125 -11.25 C 12.769531 -11.34375 12.738281 -11.457031 12.71875 -11.59375 C 11.351562 -10.5625 10.09375 -9.503906 8.9375 -8.421875 C 7.789062 -7.335938 6.722656 -6.191406 5.734375 -4.984375 C 4.816406 -3.867188 4.203125 -2.6875 3.890625 -1.4375 C 3.734375 -0.757812 3.816406 -0.175781 4.140625 0.3125 C 4.492188 0.9375 5.109375 1.035156 5.984375 0.609375 C 6.453125 0.410156 6.898438 0.164062 7.328125 -0.125 C 9.003906 -1.28125 10.625 -2.53125 12.1875 -3.875 C 12.488281 -4.144531 12.804688 -4.414062 13.140625 -4.6875 Z M 13.140625 -4.6875 "/></g></g></g></svg>